; NON-PLATED HOLES START AT T1
; THROUGH (PLATED) HOLES START AT T100
M48
INCH
T100C0.031497
T101C0.037222
T102C0.035000
T103C0.038000
T104C0.037250
%
T100
X012111Y012777
X012111Y011793
T101
X006111Y016777
X006111Y020777
X006111Y007777
X006111Y017777
X006111Y008777
X006111Y018777
X006111Y012777
X006111Y019777
X006111Y013777
X006111Y014777
X006111Y015777
T102
X006570Y015246
X009570Y018246
X006570Y016246
X009570Y019246
X006570Y020246
X006570Y017246
X009570Y014246
X006570Y021246
X006570Y018246
X009570Y015246
X016111Y019777
X006570Y019246
X009570Y016246
X009570Y020246
X006570Y014246
X009570Y017246
X009570Y021246
T103
X012111Y016777
X012111Y014777
X012111Y019777
X012111Y020777
X012111Y015777
X012111Y021777
T104
X006111Y004777
X006111Y009777
X006111Y010777
X006111Y005777
X006111Y011777
X006111Y006777
T00
M30
