G04 MADE WITH FRITZING*
G04 WWW.FRITZING.ORG*
G04 DOUBLE SIDED*
G04 HOLES PLATED*
G04 CONTOUR ON CENTER OF CONTOUR VECTOR*
%ASAXBY*%
%FSLAX23Y23*%
%MOIN*%
%OFA0B0*%
%SFA1.0B1.0*%
%ADD10C,0.072992*%
%ADD11C,0.085000*%
%ADD12C,0.088000*%
%ADD13C,0.080555*%
%ADD14C,0.080583*%
%ADD15R,0.072992X0.072992*%
%ADD16R,0.088000X0.088000*%
%ADD17R,0.085000X0.085000*%
%ADD18R,0.001000X0.001000*%
%LNMASK1*%
G90*
G70*
G54D10*
X1211Y1179D03*
X1211Y1278D03*
G54D11*
X1611Y1978D03*
G54D12*
X1211Y2178D03*
X1211Y2078D03*
X1211Y1978D03*
X1211Y1678D03*
X1211Y1578D03*
X1211Y1478D03*
G54D13*
X611Y2078D03*
X611Y1978D03*
X611Y1878D03*
X611Y1778D03*
X611Y1678D03*
X611Y1578D03*
X611Y1278D03*
G54D14*
X611Y1178D03*
G54D13*
X611Y1378D03*
X611Y1478D03*
G54D14*
X611Y1078D03*
X611Y978D03*
G54D13*
X611Y878D03*
X611Y778D03*
G54D14*
X611Y678D03*
X611Y578D03*
X611Y478D03*
G54D11*
X657Y2125D03*
X957Y2125D03*
X657Y2025D03*
X957Y2025D03*
X657Y1925D03*
X957Y1925D03*
X657Y1825D03*
X957Y1825D03*
X657Y1725D03*
X957Y1725D03*
X657Y1625D03*
X957Y1625D03*
X657Y1525D03*
X957Y1525D03*
X657Y1425D03*
X957Y1425D03*
G54D15*
X1211Y1179D03*
G54D16*
X1211Y2178D03*
X1211Y1678D03*
G54D17*
X657Y2125D03*
G54D18*
X0Y2118D02*
X50Y2118D01*
X0Y2117D02*
X50Y2117D01*
X0Y2116D02*
X50Y2116D01*
X0Y2115D02*
X50Y2115D01*
X0Y2114D02*
X50Y2114D01*
X0Y2113D02*
X50Y2113D01*
X0Y2112D02*
X50Y2112D01*
X0Y2111D02*
X50Y2111D01*
X0Y2110D02*
X50Y2110D01*
X0Y2109D02*
X50Y2109D01*
X0Y2108D02*
X50Y2108D01*
X0Y2107D02*
X50Y2107D01*
X0Y2106D02*
X50Y2106D01*
X0Y2105D02*
X50Y2105D01*
X0Y2104D02*
X50Y2104D01*
X0Y2103D02*
X50Y2103D01*
X0Y2102D02*
X50Y2102D01*
X0Y2101D02*
X50Y2101D01*
X0Y2100D02*
X50Y2100D01*
X0Y2099D02*
X50Y2099D01*
X0Y2098D02*
X50Y2098D01*
X0Y2097D02*
X50Y2097D01*
X0Y2096D02*
X50Y2096D01*
X0Y2095D02*
X50Y2095D01*
X0Y2094D02*
X50Y2094D01*
X0Y2093D02*
X50Y2093D01*
X0Y2092D02*
X50Y2092D01*
X0Y2091D02*
X50Y2091D01*
X0Y2090D02*
X50Y2090D01*
X0Y2089D02*
X50Y2089D01*
X0Y2088D02*
X50Y2088D01*
X0Y2087D02*
X50Y2087D01*
X0Y2086D02*
X50Y2086D01*
X0Y2085D02*
X50Y2085D01*
X0Y2084D02*
X50Y2084D01*
X0Y2083D02*
X50Y2083D01*
X0Y2082D02*
X50Y2082D01*
X0Y2081D02*
X50Y2081D01*
X0Y2080D02*
X50Y2080D01*
X0Y2079D02*
X50Y2079D01*
X0Y2078D02*
X50Y2078D01*
X0Y2077D02*
X50Y2077D01*
X0Y2076D02*
X50Y2076D01*
X0Y2075D02*
X50Y2075D01*
X0Y2074D02*
X50Y2074D01*
X0Y2073D02*
X50Y2073D01*
X0Y2072D02*
X50Y2072D01*
X0Y2071D02*
X50Y2071D01*
X0Y2070D02*
X50Y2070D01*
X0Y2069D02*
X50Y2069D01*
X0Y2068D02*
X50Y2068D01*
X0Y2067D02*
X50Y2067D01*
X0Y2066D02*
X50Y2066D01*
X0Y2065D02*
X50Y2065D01*
X0Y2064D02*
X50Y2064D01*
X0Y2063D02*
X50Y2063D01*
X0Y2062D02*
X50Y2062D01*
X0Y2061D02*
X50Y2061D01*
X0Y2060D02*
X50Y2060D01*
X0Y2059D02*
X50Y2059D01*
X0Y2058D02*
X50Y2058D01*
X0Y2057D02*
X50Y2057D01*
X0Y2056D02*
X50Y2056D01*
X0Y2055D02*
X50Y2055D01*
X0Y2054D02*
X50Y2054D01*
X0Y2053D02*
X50Y2053D01*
X0Y2052D02*
X50Y2052D01*
X0Y2051D02*
X50Y2051D01*
X0Y2050D02*
X50Y2050D01*
X0Y2049D02*
X50Y2049D01*
X0Y2048D02*
X50Y2048D01*
X0Y2047D02*
X50Y2047D01*
X0Y2046D02*
X50Y2046D01*
X0Y2045D02*
X50Y2045D01*
X0Y2044D02*
X50Y2044D01*
X0Y2043D02*
X50Y2043D01*
X0Y2042D02*
X50Y2042D01*
X0Y2041D02*
X50Y2041D01*
X0Y2040D02*
X50Y2040D01*
X0Y2039D02*
X50Y2039D01*
X0Y2038D02*
X50Y2038D01*
X6Y2018D02*
X15Y2018D01*
X2Y2017D02*
X19Y2017D01*
X0Y2016D02*
X22Y2016D01*
X0Y2015D02*
X25Y2015D01*
X0Y2014D02*
X27Y2014D01*
X0Y2013D02*
X29Y2013D01*
X0Y2012D02*
X30Y2012D01*
X0Y2011D02*
X32Y2011D01*
X0Y2010D02*
X33Y2010D01*
X0Y2009D02*
X34Y2009D01*
X0Y2008D02*
X36Y2008D01*
X0Y2007D02*
X37Y2007D01*
X0Y2006D02*
X38Y2006D01*
X0Y2005D02*
X39Y2005D01*
X0Y2004D02*
X40Y2004D01*
X0Y2003D02*
X41Y2003D01*
X0Y2002D02*
X41Y2002D01*
X0Y2001D02*
X42Y2001D01*
X0Y2000D02*
X43Y2000D01*
X0Y1999D02*
X44Y1999D01*
X0Y1998D02*
X44Y1998D01*
X0Y1997D02*
X45Y1997D01*
X0Y1996D02*
X45Y1996D01*
X0Y1995D02*
X46Y1995D01*
X0Y1994D02*
X46Y1994D01*
X0Y1993D02*
X47Y1993D01*
X0Y1992D02*
X47Y1992D01*
X0Y1991D02*
X48Y1991D01*
X0Y1990D02*
X48Y1990D01*
X0Y1989D02*
X49Y1989D01*
X0Y1988D02*
X49Y1988D01*
X0Y1987D02*
X49Y1987D01*
X0Y1986D02*
X49Y1986D01*
X0Y1985D02*
X50Y1985D01*
X0Y1984D02*
X50Y1984D01*
X0Y1983D02*
X50Y1983D01*
X0Y1982D02*
X50Y1982D01*
X0Y1981D02*
X50Y1981D01*
X0Y1980D02*
X50Y1980D01*
X0Y1979D02*
X50Y1979D01*
X0Y1978D02*
X50Y1978D01*
X0Y1977D02*
X50Y1977D01*
X0Y1976D02*
X50Y1976D01*
X0Y1975D02*
X50Y1975D01*
X0Y1974D02*
X50Y1974D01*
X0Y1973D02*
X50Y1973D01*
X0Y1972D02*
X50Y1972D01*
X0Y1971D02*
X50Y1971D01*
X0Y1970D02*
X49Y1970D01*
X0Y1969D02*
X49Y1969D01*
X0Y1968D02*
X49Y1968D01*
X0Y1967D02*
X48Y1967D01*
X0Y1966D02*
X48Y1966D01*
X0Y1965D02*
X48Y1965D01*
X0Y1964D02*
X47Y1964D01*
X0Y1963D02*
X47Y1963D01*
X0Y1962D02*
X46Y1962D01*
X0Y1961D02*
X46Y1961D01*
X0Y1960D02*
X45Y1960D01*
X0Y1959D02*
X45Y1959D01*
X0Y1958D02*
X44Y1958D01*
X0Y1957D02*
X43Y1957D01*
X0Y1956D02*
X43Y1956D01*
X0Y1955D02*
X42Y1955D01*
X0Y1954D02*
X41Y1954D01*
X0Y1953D02*
X40Y1953D01*
X0Y1952D02*
X39Y1952D01*
X0Y1951D02*
X39Y1951D01*
X0Y1950D02*
X38Y1950D01*
X0Y1949D02*
X36Y1949D01*
X0Y1948D02*
X35Y1948D01*
X0Y1947D02*
X34Y1947D01*
X0Y1946D02*
X33Y1946D01*
X0Y1945D02*
X32Y1945D01*
X0Y1944D02*
X30Y1944D01*
X0Y1943D02*
X28Y1943D01*
X0Y1942D02*
X26Y1942D01*
X0Y1941D02*
X24Y1941D01*
X0Y1940D02*
X22Y1940D01*
X2Y1939D02*
X19Y1939D01*
X8Y1938D02*
X13Y1938D01*
X6Y1918D02*
X15Y1918D01*
X2Y1917D02*
X19Y1917D01*
X0Y1916D02*
X22Y1916D01*
X0Y1915D02*
X25Y1915D01*
X0Y1914D02*
X27Y1914D01*
X0Y1913D02*
X29Y1913D01*
X0Y1912D02*
X30Y1912D01*
X0Y1911D02*
X32Y1911D01*
X0Y1910D02*
X33Y1910D01*
X0Y1909D02*
X34Y1909D01*
X0Y1908D02*
X36Y1908D01*
X0Y1907D02*
X37Y1907D01*
X0Y1906D02*
X38Y1906D01*
X0Y1905D02*
X39Y1905D01*
X0Y1904D02*
X40Y1904D01*
X0Y1903D02*
X41Y1903D01*
X0Y1902D02*
X41Y1902D01*
X0Y1901D02*
X42Y1901D01*
X0Y1900D02*
X43Y1900D01*
X0Y1899D02*
X44Y1899D01*
X0Y1898D02*
X44Y1898D01*
X0Y1897D02*
X45Y1897D01*
X0Y1896D02*
X45Y1896D01*
X0Y1895D02*
X46Y1895D01*
X0Y1894D02*
X46Y1894D01*
X0Y1893D02*
X47Y1893D01*
X0Y1892D02*
X47Y1892D01*
X0Y1891D02*
X48Y1891D01*
X0Y1890D02*
X48Y1890D01*
X0Y1889D02*
X49Y1889D01*
X0Y1888D02*
X49Y1888D01*
X0Y1887D02*
X49Y1887D01*
X0Y1886D02*
X49Y1886D01*
X0Y1885D02*
X50Y1885D01*
X0Y1884D02*
X50Y1884D01*
X0Y1883D02*
X50Y1883D01*
X0Y1882D02*
X50Y1882D01*
X0Y1881D02*
X50Y1881D01*
X0Y1880D02*
X50Y1880D01*
X0Y1879D02*
X50Y1879D01*
X0Y1878D02*
X50Y1878D01*
X0Y1877D02*
X50Y1877D01*
X0Y1876D02*
X50Y1876D01*
X0Y1875D02*
X50Y1875D01*
X0Y1874D02*
X50Y1874D01*
X0Y1873D02*
X50Y1873D01*
X0Y1872D02*
X50Y1872D01*
X0Y1871D02*
X50Y1871D01*
X0Y1870D02*
X49Y1870D01*
X0Y1869D02*
X49Y1869D01*
X0Y1868D02*
X49Y1868D01*
X0Y1867D02*
X48Y1867D01*
X0Y1866D02*
X48Y1866D01*
X0Y1865D02*
X48Y1865D01*
X0Y1864D02*
X47Y1864D01*
X0Y1863D02*
X47Y1863D01*
X0Y1862D02*
X46Y1862D01*
X0Y1861D02*
X46Y1861D01*
X0Y1860D02*
X45Y1860D01*
X0Y1859D02*
X45Y1859D01*
X0Y1858D02*
X44Y1858D01*
X0Y1857D02*
X43Y1857D01*
X0Y1856D02*
X43Y1856D01*
X0Y1855D02*
X42Y1855D01*
X0Y1854D02*
X41Y1854D01*
X0Y1853D02*
X40Y1853D01*
X0Y1852D02*
X39Y1852D01*
X0Y1851D02*
X39Y1851D01*
X0Y1850D02*
X38Y1850D01*
X0Y1849D02*
X36Y1849D01*
X0Y1848D02*
X35Y1848D01*
X0Y1847D02*
X34Y1847D01*
X0Y1846D02*
X33Y1846D01*
X0Y1845D02*
X32Y1845D01*
X0Y1844D02*
X30Y1844D01*
X0Y1843D02*
X28Y1843D01*
X0Y1842D02*
X26Y1842D01*
X0Y1841D02*
X24Y1841D01*
X0Y1840D02*
X22Y1840D01*
X3Y1839D02*
X19Y1839D01*
X8Y1838D02*
X13Y1838D01*
X6Y1818D02*
X15Y1818D01*
X2Y1817D02*
X19Y1817D01*
X0Y1816D02*
X22Y1816D01*
X0Y1815D02*
X25Y1815D01*
X0Y1814D02*
X27Y1814D01*
X0Y1813D02*
X29Y1813D01*
X0Y1812D02*
X30Y1812D01*
X0Y1811D02*
X32Y1811D01*
X0Y1810D02*
X33Y1810D01*
X0Y1809D02*
X34Y1809D01*
X0Y1808D02*
X36Y1808D01*
X0Y1807D02*
X37Y1807D01*
X0Y1806D02*
X38Y1806D01*
X0Y1805D02*
X39Y1805D01*
X0Y1804D02*
X40Y1804D01*
X0Y1803D02*
X41Y1803D01*
X0Y1802D02*
X41Y1802D01*
X0Y1801D02*
X42Y1801D01*
X0Y1800D02*
X43Y1800D01*
X0Y1799D02*
X44Y1799D01*
X0Y1798D02*
X44Y1798D01*
X0Y1797D02*
X45Y1797D01*
X0Y1796D02*
X45Y1796D01*
X0Y1795D02*
X46Y1795D01*
X0Y1794D02*
X46Y1794D01*
X0Y1793D02*
X47Y1793D01*
X0Y1792D02*
X47Y1792D01*
X0Y1791D02*
X48Y1791D01*
X0Y1790D02*
X48Y1790D01*
X0Y1789D02*
X49Y1789D01*
X0Y1788D02*
X49Y1788D01*
X0Y1787D02*
X49Y1787D01*
X0Y1786D02*
X49Y1786D01*
X0Y1785D02*
X50Y1785D01*
X0Y1784D02*
X50Y1784D01*
X0Y1783D02*
X50Y1783D01*
X0Y1782D02*
X50Y1782D01*
X0Y1781D02*
X50Y1781D01*
X0Y1780D02*
X50Y1780D01*
X0Y1779D02*
X50Y1779D01*
X0Y1778D02*
X50Y1778D01*
X0Y1777D02*
X50Y1777D01*
X0Y1776D02*
X50Y1776D01*
X0Y1775D02*
X50Y1775D01*
X0Y1774D02*
X50Y1774D01*
X0Y1773D02*
X50Y1773D01*
X0Y1772D02*
X50Y1772D01*
X0Y1771D02*
X50Y1771D01*
X0Y1770D02*
X49Y1770D01*
X0Y1769D02*
X49Y1769D01*
X0Y1768D02*
X49Y1768D01*
X0Y1767D02*
X48Y1767D01*
X0Y1766D02*
X48Y1766D01*
X0Y1765D02*
X48Y1765D01*
X0Y1764D02*
X47Y1764D01*
X0Y1763D02*
X47Y1763D01*
X0Y1762D02*
X46Y1762D01*
X0Y1761D02*
X46Y1761D01*
X0Y1760D02*
X45Y1760D01*
X0Y1759D02*
X45Y1759D01*
X0Y1758D02*
X44Y1758D01*
X0Y1757D02*
X43Y1757D01*
X0Y1756D02*
X43Y1756D01*
X0Y1755D02*
X42Y1755D01*
X0Y1754D02*
X41Y1754D01*
X0Y1753D02*
X40Y1753D01*
X0Y1752D02*
X39Y1752D01*
X0Y1751D02*
X39Y1751D01*
X0Y1750D02*
X38Y1750D01*
X0Y1749D02*
X36Y1749D01*
X0Y1748D02*
X35Y1748D01*
X0Y1747D02*
X34Y1747D01*
X0Y1746D02*
X33Y1746D01*
X0Y1745D02*
X31Y1745D01*
X0Y1744D02*
X30Y1744D01*
X0Y1743D02*
X28Y1743D01*
X0Y1742D02*
X26Y1742D01*
X0Y1741D02*
X24Y1741D01*
X0Y1740D02*
X22Y1740D01*
X3Y1739D02*
X19Y1739D01*
X8Y1738D02*
X13Y1738D01*
X6Y1718D02*
X15Y1718D01*
X2Y1717D02*
X19Y1717D01*
X0Y1716D02*
X22Y1716D01*
X0Y1715D02*
X25Y1715D01*
X0Y1714D02*
X27Y1714D01*
X0Y1713D02*
X29Y1713D01*
X0Y1712D02*
X30Y1712D01*
X0Y1711D02*
X32Y1711D01*
X0Y1710D02*
X33Y1710D01*
X0Y1709D02*
X34Y1709D01*
X0Y1708D02*
X36Y1708D01*
X0Y1707D02*
X37Y1707D01*
X0Y1706D02*
X38Y1706D01*
X0Y1705D02*
X39Y1705D01*
X0Y1704D02*
X40Y1704D01*
X0Y1703D02*
X41Y1703D01*
X0Y1702D02*
X41Y1702D01*
X0Y1701D02*
X42Y1701D01*
X0Y1700D02*
X43Y1700D01*
X0Y1699D02*
X44Y1699D01*
X0Y1698D02*
X44Y1698D01*
X0Y1697D02*
X45Y1697D01*
X0Y1696D02*
X45Y1696D01*
X0Y1695D02*
X46Y1695D01*
X0Y1694D02*
X46Y1694D01*
X0Y1693D02*
X47Y1693D01*
X0Y1692D02*
X47Y1692D01*
X0Y1691D02*
X48Y1691D01*
X0Y1690D02*
X48Y1690D01*
X0Y1689D02*
X49Y1689D01*
X0Y1688D02*
X49Y1688D01*
X0Y1687D02*
X49Y1687D01*
X0Y1686D02*
X49Y1686D01*
X0Y1685D02*
X50Y1685D01*
X0Y1684D02*
X50Y1684D01*
X0Y1683D02*
X50Y1683D01*
X0Y1682D02*
X50Y1682D01*
X0Y1681D02*
X50Y1681D01*
X0Y1680D02*
X50Y1680D01*
X0Y1679D02*
X50Y1679D01*
X0Y1678D02*
X50Y1678D01*
X0Y1677D02*
X50Y1677D01*
X0Y1676D02*
X50Y1676D01*
X0Y1675D02*
X50Y1675D01*
X0Y1674D02*
X50Y1674D01*
X0Y1673D02*
X50Y1673D01*
X0Y1672D02*
X50Y1672D01*
X0Y1671D02*
X50Y1671D01*
X0Y1670D02*
X49Y1670D01*
X0Y1669D02*
X49Y1669D01*
X0Y1668D02*
X49Y1668D01*
X0Y1667D02*
X48Y1667D01*
X0Y1666D02*
X48Y1666D01*
X0Y1665D02*
X48Y1665D01*
X0Y1664D02*
X47Y1664D01*
X0Y1663D02*
X47Y1663D01*
X0Y1662D02*
X46Y1662D01*
X0Y1661D02*
X46Y1661D01*
X0Y1660D02*
X45Y1660D01*
X0Y1659D02*
X45Y1659D01*
X0Y1658D02*
X44Y1658D01*
X0Y1657D02*
X43Y1657D01*
X0Y1656D02*
X43Y1656D01*
X0Y1655D02*
X42Y1655D01*
X0Y1654D02*
X41Y1654D01*
X0Y1653D02*
X40Y1653D01*
X0Y1652D02*
X39Y1652D01*
X0Y1651D02*
X39Y1651D01*
X0Y1650D02*
X38Y1650D01*
X0Y1649D02*
X36Y1649D01*
X0Y1648D02*
X35Y1648D01*
X0Y1647D02*
X34Y1647D01*
X0Y1646D02*
X33Y1646D01*
X0Y1645D02*
X31Y1645D01*
X0Y1644D02*
X30Y1644D01*
X0Y1643D02*
X28Y1643D01*
X0Y1642D02*
X26Y1642D01*
X0Y1641D02*
X24Y1641D01*
X0Y1640D02*
X22Y1640D01*
X3Y1639D02*
X19Y1639D01*
X9Y1638D02*
X13Y1638D01*
X6Y1618D02*
X15Y1618D01*
X2Y1617D02*
X19Y1617D01*
X0Y1616D02*
X22Y1616D01*
X0Y1615D02*
X25Y1615D01*
X0Y1614D02*
X27Y1614D01*
X0Y1613D02*
X29Y1613D01*
X0Y1612D02*
X30Y1612D01*
X0Y1611D02*
X32Y1611D01*
X0Y1610D02*
X33Y1610D01*
X0Y1609D02*
X34Y1609D01*
X0Y1608D02*
X36Y1608D01*
X0Y1607D02*
X37Y1607D01*
X0Y1606D02*
X38Y1606D01*
X0Y1605D02*
X39Y1605D01*
X0Y1604D02*
X40Y1604D01*
X0Y1603D02*
X41Y1603D01*
X0Y1602D02*
X41Y1602D01*
X0Y1601D02*
X42Y1601D01*
X0Y1600D02*
X43Y1600D01*
X0Y1599D02*
X44Y1599D01*
X0Y1598D02*
X44Y1598D01*
X0Y1597D02*
X45Y1597D01*
X0Y1596D02*
X45Y1596D01*
X0Y1595D02*
X46Y1595D01*
X0Y1594D02*
X46Y1594D01*
X0Y1593D02*
X47Y1593D01*
X0Y1592D02*
X47Y1592D01*
X0Y1591D02*
X48Y1591D01*
X0Y1590D02*
X48Y1590D01*
X0Y1589D02*
X49Y1589D01*
X0Y1588D02*
X49Y1588D01*
X0Y1587D02*
X49Y1587D01*
X0Y1586D02*
X49Y1586D01*
X0Y1585D02*
X50Y1585D01*
X0Y1584D02*
X50Y1584D01*
X0Y1583D02*
X50Y1583D01*
X0Y1582D02*
X50Y1582D01*
X0Y1581D02*
X50Y1581D01*
X0Y1580D02*
X50Y1580D01*
X0Y1579D02*
X50Y1579D01*
X0Y1578D02*
X50Y1578D01*
X0Y1577D02*
X50Y1577D01*
X0Y1576D02*
X50Y1576D01*
X0Y1575D02*
X50Y1575D01*
X0Y1574D02*
X50Y1574D01*
X0Y1573D02*
X50Y1573D01*
X0Y1572D02*
X50Y1572D01*
X0Y1571D02*
X50Y1571D01*
X0Y1570D02*
X49Y1570D01*
X0Y1569D02*
X49Y1569D01*
X0Y1568D02*
X49Y1568D01*
X0Y1567D02*
X48Y1567D01*
X0Y1566D02*
X48Y1566D01*
X0Y1565D02*
X48Y1565D01*
X0Y1564D02*
X47Y1564D01*
X0Y1563D02*
X47Y1563D01*
X0Y1562D02*
X46Y1562D01*
X0Y1561D02*
X46Y1561D01*
X0Y1560D02*
X45Y1560D01*
X0Y1559D02*
X45Y1559D01*
X0Y1558D02*
X44Y1558D01*
X0Y1557D02*
X43Y1557D01*
X0Y1556D02*
X43Y1556D01*
X0Y1555D02*
X42Y1555D01*
X0Y1554D02*
X41Y1554D01*
X0Y1553D02*
X40Y1553D01*
X0Y1552D02*
X39Y1552D01*
X0Y1551D02*
X38Y1551D01*
X0Y1550D02*
X38Y1550D01*
X0Y1549D02*
X36Y1549D01*
X0Y1548D02*
X35Y1548D01*
X0Y1547D02*
X34Y1547D01*
X0Y1546D02*
X33Y1546D01*
X0Y1545D02*
X31Y1545D01*
X0Y1544D02*
X30Y1544D01*
X0Y1543D02*
X28Y1543D01*
X0Y1542D02*
X26Y1542D01*
X0Y1541D02*
X24Y1541D01*
X0Y1540D02*
X22Y1540D01*
X3Y1539D02*
X19Y1539D01*
X9Y1538D02*
X13Y1538D01*
X6Y1518D02*
X15Y1518D01*
X2Y1517D02*
X19Y1517D01*
X0Y1516D02*
X22Y1516D01*
X0Y1515D02*
X25Y1515D01*
X0Y1514D02*
X27Y1514D01*
X0Y1513D02*
X29Y1513D01*
X0Y1512D02*
X30Y1512D01*
X0Y1511D02*
X32Y1511D01*
X0Y1510D02*
X33Y1510D01*
X0Y1509D02*
X34Y1509D01*
X0Y1508D02*
X36Y1508D01*
X0Y1507D02*
X37Y1507D01*
X0Y1506D02*
X38Y1506D01*
X0Y1505D02*
X39Y1505D01*
X0Y1504D02*
X40Y1504D01*
X0Y1503D02*
X41Y1503D01*
X0Y1502D02*
X41Y1502D01*
X0Y1501D02*
X42Y1501D01*
X0Y1500D02*
X43Y1500D01*
X0Y1499D02*
X44Y1499D01*
X0Y1498D02*
X44Y1498D01*
X0Y1497D02*
X45Y1497D01*
X0Y1496D02*
X45Y1496D01*
X0Y1495D02*
X46Y1495D01*
X0Y1494D02*
X46Y1494D01*
X0Y1493D02*
X47Y1493D01*
X0Y1492D02*
X47Y1492D01*
X0Y1491D02*
X48Y1491D01*
X0Y1490D02*
X48Y1490D01*
X0Y1489D02*
X49Y1489D01*
X0Y1488D02*
X49Y1488D01*
X0Y1487D02*
X49Y1487D01*
X0Y1486D02*
X49Y1486D01*
X0Y1485D02*
X50Y1485D01*
X0Y1484D02*
X50Y1484D01*
X0Y1483D02*
X50Y1483D01*
X0Y1482D02*
X50Y1482D01*
X0Y1481D02*
X50Y1481D01*
X0Y1480D02*
X50Y1480D01*
X0Y1479D02*
X50Y1479D01*
X0Y1478D02*
X50Y1478D01*
X0Y1477D02*
X50Y1477D01*
X0Y1476D02*
X50Y1476D01*
X0Y1475D02*
X50Y1475D01*
X0Y1474D02*
X50Y1474D01*
X0Y1473D02*
X50Y1473D01*
X0Y1472D02*
X50Y1472D01*
X0Y1471D02*
X50Y1471D01*
X0Y1470D02*
X49Y1470D01*
X0Y1469D02*
X49Y1469D01*
X0Y1468D02*
X49Y1468D01*
X0Y1467D02*
X48Y1467D01*
X0Y1466D02*
X48Y1466D01*
X0Y1465D02*
X48Y1465D01*
X0Y1464D02*
X47Y1464D01*
X0Y1463D02*
X47Y1463D01*
X0Y1462D02*
X46Y1462D01*
X0Y1461D02*
X46Y1461D01*
X0Y1460D02*
X45Y1460D01*
X0Y1459D02*
X45Y1459D01*
X0Y1458D02*
X44Y1458D01*
X0Y1457D02*
X43Y1457D01*
X0Y1456D02*
X43Y1456D01*
X0Y1455D02*
X42Y1455D01*
X0Y1454D02*
X41Y1454D01*
X0Y1453D02*
X40Y1453D01*
X0Y1452D02*
X39Y1452D01*
X0Y1451D02*
X38Y1451D01*
X0Y1450D02*
X38Y1450D01*
X0Y1449D02*
X36Y1449D01*
X0Y1448D02*
X35Y1448D01*
X0Y1447D02*
X34Y1447D01*
X0Y1446D02*
X33Y1446D01*
X0Y1445D02*
X31Y1445D01*
X0Y1444D02*
X30Y1444D01*
X0Y1443D02*
X28Y1443D01*
X0Y1442D02*
X26Y1442D01*
X0Y1441D02*
X24Y1441D01*
X0Y1440D02*
X22Y1440D01*
X3Y1439D02*
X19Y1439D01*
X9Y1438D02*
X12Y1438D01*
X6Y1418D02*
X15Y1418D01*
X2Y1417D02*
X20Y1417D01*
X0Y1416D02*
X23Y1416D01*
X0Y1415D02*
X25Y1415D01*
X0Y1414D02*
X27Y1414D01*
X0Y1413D02*
X29Y1413D01*
X0Y1412D02*
X30Y1412D01*
X0Y1411D02*
X32Y1411D01*
X0Y1410D02*
X33Y1410D01*
X0Y1409D02*
X34Y1409D01*
X0Y1408D02*
X36Y1408D01*
X0Y1407D02*
X37Y1407D01*
X0Y1406D02*
X38Y1406D01*
X0Y1405D02*
X39Y1405D01*
X0Y1404D02*
X40Y1404D01*
X0Y1403D02*
X41Y1403D01*
X0Y1402D02*
X41Y1402D01*
X0Y1401D02*
X42Y1401D01*
X0Y1400D02*
X43Y1400D01*
X0Y1399D02*
X44Y1399D01*
X0Y1398D02*
X44Y1398D01*
X0Y1397D02*
X45Y1397D01*
X0Y1396D02*
X45Y1396D01*
X0Y1395D02*
X46Y1395D01*
X0Y1394D02*
X46Y1394D01*
X0Y1393D02*
X47Y1393D01*
X0Y1392D02*
X47Y1392D01*
X0Y1391D02*
X48Y1391D01*
X0Y1390D02*
X48Y1390D01*
X0Y1389D02*
X49Y1389D01*
X0Y1388D02*
X49Y1388D01*
X0Y1387D02*
X49Y1387D01*
X0Y1386D02*
X49Y1386D01*
X0Y1385D02*
X50Y1385D01*
X0Y1384D02*
X50Y1384D01*
X0Y1383D02*
X50Y1383D01*
X0Y1382D02*
X50Y1382D01*
X0Y1381D02*
X50Y1381D01*
X0Y1380D02*
X50Y1380D01*
X0Y1379D02*
X50Y1379D01*
X0Y1378D02*
X50Y1378D01*
X0Y1377D02*
X50Y1377D01*
X0Y1376D02*
X50Y1376D01*
X0Y1375D02*
X50Y1375D01*
X0Y1374D02*
X50Y1374D01*
X0Y1373D02*
X50Y1373D01*
X0Y1372D02*
X50Y1372D01*
X0Y1371D02*
X50Y1371D01*
X0Y1370D02*
X49Y1370D01*
X0Y1369D02*
X49Y1369D01*
X0Y1368D02*
X49Y1368D01*
X0Y1367D02*
X48Y1367D01*
X0Y1366D02*
X48Y1366D01*
X0Y1365D02*
X48Y1365D01*
X0Y1364D02*
X47Y1364D01*
X0Y1363D02*
X47Y1363D01*
X0Y1362D02*
X46Y1362D01*
X0Y1361D02*
X46Y1361D01*
X0Y1360D02*
X45Y1360D01*
X0Y1359D02*
X45Y1359D01*
X0Y1358D02*
X44Y1358D01*
X0Y1357D02*
X43Y1357D01*
X0Y1356D02*
X43Y1356D01*
X0Y1355D02*
X42Y1355D01*
X0Y1354D02*
X41Y1354D01*
X0Y1353D02*
X40Y1353D01*
X0Y1352D02*
X39Y1352D01*
X0Y1351D02*
X38Y1351D01*
X0Y1350D02*
X37Y1350D01*
X0Y1349D02*
X36Y1349D01*
X0Y1348D02*
X35Y1348D01*
X0Y1347D02*
X34Y1347D01*
X0Y1346D02*
X33Y1346D01*
X0Y1345D02*
X31Y1345D01*
X0Y1344D02*
X30Y1344D01*
X0Y1343D02*
X28Y1343D01*
X0Y1342D02*
X26Y1342D01*
X0Y1341D02*
X24Y1341D01*
X0Y1340D02*
X22Y1340D01*
X3Y1339D02*
X18Y1339D01*
X9Y1338D02*
X12Y1338D01*
X6Y1318D02*
X15Y1318D01*
X2Y1317D02*
X20Y1317D01*
X0Y1316D02*
X23Y1316D01*
X0Y1315D02*
X25Y1315D01*
X0Y1314D02*
X27Y1314D01*
X0Y1313D02*
X29Y1313D01*
X0Y1312D02*
X30Y1312D01*
X0Y1311D02*
X32Y1311D01*
X0Y1310D02*
X33Y1310D01*
X0Y1309D02*
X34Y1309D01*
X0Y1308D02*
X36Y1308D01*
X0Y1307D02*
X37Y1307D01*
X0Y1306D02*
X38Y1306D01*
X0Y1305D02*
X39Y1305D01*
X0Y1304D02*
X40Y1304D01*
X0Y1303D02*
X41Y1303D01*
X0Y1302D02*
X41Y1302D01*
X0Y1301D02*
X42Y1301D01*
X0Y1300D02*
X43Y1300D01*
X0Y1299D02*
X44Y1299D01*
X0Y1298D02*
X44Y1298D01*
X0Y1297D02*
X45Y1297D01*
X0Y1296D02*
X45Y1296D01*
X0Y1295D02*
X46Y1295D01*
X0Y1294D02*
X46Y1294D01*
X0Y1293D02*
X47Y1293D01*
X0Y1292D02*
X47Y1292D01*
X0Y1291D02*
X48Y1291D01*
X0Y1290D02*
X48Y1290D01*
X0Y1289D02*
X49Y1289D01*
X0Y1288D02*
X49Y1288D01*
X0Y1287D02*
X49Y1287D01*
X0Y1286D02*
X49Y1286D01*
X0Y1285D02*
X50Y1285D01*
X0Y1284D02*
X50Y1284D01*
X0Y1283D02*
X50Y1283D01*
X0Y1282D02*
X50Y1282D01*
X0Y1281D02*
X50Y1281D01*
X0Y1280D02*
X50Y1280D01*
X0Y1279D02*
X50Y1279D01*
X0Y1278D02*
X50Y1278D01*
X0Y1277D02*
X50Y1277D01*
X0Y1276D02*
X50Y1276D01*
X0Y1275D02*
X50Y1275D01*
X0Y1274D02*
X50Y1274D01*
X0Y1273D02*
X50Y1273D01*
X0Y1272D02*
X50Y1272D01*
X0Y1271D02*
X50Y1271D01*
X0Y1270D02*
X49Y1270D01*
X0Y1269D02*
X49Y1269D01*
X0Y1268D02*
X49Y1268D01*
X0Y1267D02*
X48Y1267D01*
X0Y1266D02*
X48Y1266D01*
X0Y1265D02*
X48Y1265D01*
X0Y1264D02*
X47Y1264D01*
X0Y1263D02*
X47Y1263D01*
X0Y1262D02*
X46Y1262D01*
X0Y1261D02*
X46Y1261D01*
X0Y1260D02*
X45Y1260D01*
X0Y1259D02*
X45Y1259D01*
X0Y1258D02*
X44Y1258D01*
X0Y1257D02*
X43Y1257D01*
X0Y1256D02*
X43Y1256D01*
X0Y1255D02*
X42Y1255D01*
X0Y1254D02*
X41Y1254D01*
X0Y1253D02*
X40Y1253D01*
X0Y1252D02*
X39Y1252D01*
X0Y1251D02*
X38Y1251D01*
X0Y1250D02*
X37Y1250D01*
X0Y1249D02*
X36Y1249D01*
X0Y1248D02*
X35Y1248D01*
X0Y1247D02*
X34Y1247D01*
X0Y1246D02*
X33Y1246D01*
X0Y1245D02*
X31Y1245D01*
X0Y1244D02*
X30Y1244D01*
X0Y1243D02*
X28Y1243D01*
X0Y1242D02*
X26Y1242D01*
X0Y1241D02*
X24Y1241D01*
X0Y1240D02*
X22Y1240D01*
X3Y1239D02*
X18Y1239D01*
X9Y1238D02*
X12Y1238D01*
X6Y1218D02*
X15Y1218D01*
X2Y1217D02*
X20Y1217D01*
X0Y1216D02*
X23Y1216D01*
X0Y1215D02*
X25Y1215D01*
X0Y1214D02*
X27Y1214D01*
X0Y1213D02*
X29Y1213D01*
X0Y1212D02*
X30Y1212D01*
X0Y1211D02*
X32Y1211D01*
X0Y1210D02*
X33Y1210D01*
X0Y1209D02*
X35Y1209D01*
X0Y1208D02*
X36Y1208D01*
X0Y1207D02*
X37Y1207D01*
X0Y1206D02*
X38Y1206D01*
X0Y1205D02*
X39Y1205D01*
X0Y1204D02*
X40Y1204D01*
X0Y1203D02*
X41Y1203D01*
X0Y1202D02*
X41Y1202D01*
X0Y1201D02*
X42Y1201D01*
X0Y1200D02*
X43Y1200D01*
X0Y1199D02*
X44Y1199D01*
X0Y1198D02*
X44Y1198D01*
X0Y1197D02*
X45Y1197D01*
X0Y1196D02*
X45Y1196D01*
X0Y1195D02*
X46Y1195D01*
X0Y1194D02*
X46Y1194D01*
X0Y1193D02*
X47Y1193D01*
X0Y1192D02*
X47Y1192D01*
X0Y1191D02*
X48Y1191D01*
X0Y1190D02*
X48Y1190D01*
X0Y1189D02*
X49Y1189D01*
X0Y1188D02*
X49Y1188D01*
X0Y1187D02*
X49Y1187D01*
X0Y1186D02*
X49Y1186D01*
X0Y1185D02*
X50Y1185D01*
X0Y1184D02*
X50Y1184D01*
X0Y1183D02*
X50Y1183D01*
X0Y1182D02*
X50Y1182D01*
X0Y1181D02*
X50Y1181D01*
X0Y1180D02*
X50Y1180D01*
X0Y1179D02*
X50Y1179D01*
X0Y1178D02*
X50Y1178D01*
X0Y1177D02*
X50Y1177D01*
X0Y1176D02*
X50Y1176D01*
X0Y1175D02*
X50Y1175D01*
X0Y1174D02*
X50Y1174D01*
X0Y1173D02*
X50Y1173D01*
X0Y1172D02*
X50Y1172D01*
X0Y1171D02*
X50Y1171D01*
X0Y1170D02*
X49Y1170D01*
X0Y1169D02*
X49Y1169D01*
X0Y1168D02*
X49Y1168D01*
X0Y1167D02*
X48Y1167D01*
X0Y1166D02*
X48Y1166D01*
X0Y1165D02*
X48Y1165D01*
X0Y1164D02*
X47Y1164D01*
X0Y1163D02*
X47Y1163D01*
X0Y1162D02*
X46Y1162D01*
X0Y1161D02*
X46Y1161D01*
X0Y1160D02*
X45Y1160D01*
X0Y1159D02*
X45Y1159D01*
X0Y1158D02*
X44Y1158D01*
X0Y1157D02*
X43Y1157D01*
X0Y1156D02*
X43Y1156D01*
X0Y1155D02*
X42Y1155D01*
X0Y1154D02*
X41Y1154D01*
X0Y1153D02*
X40Y1153D01*
X0Y1152D02*
X39Y1152D01*
X0Y1151D02*
X38Y1151D01*
X0Y1150D02*
X37Y1150D01*
X0Y1149D02*
X36Y1149D01*
X0Y1148D02*
X35Y1148D01*
X0Y1147D02*
X34Y1147D01*
X0Y1146D02*
X33Y1146D01*
X0Y1145D02*
X31Y1145D01*
X0Y1144D02*
X30Y1144D01*
X0Y1143D02*
X28Y1143D01*
X0Y1142D02*
X26Y1142D01*
X0Y1141D02*
X24Y1141D01*
X0Y1140D02*
X22Y1140D01*
X3Y1139D02*
X18Y1139D01*
X9Y1138D02*
X12Y1138D01*
X6Y1118D02*
X15Y1118D01*
X2Y1117D02*
X20Y1117D01*
X0Y1116D02*
X23Y1116D01*
X0Y1115D02*
X25Y1115D01*
X0Y1114D02*
X27Y1114D01*
X0Y1113D02*
X29Y1113D01*
X0Y1112D02*
X30Y1112D01*
X0Y1111D02*
X32Y1111D01*
X0Y1110D02*
X33Y1110D01*
X0Y1109D02*
X35Y1109D01*
X0Y1108D02*
X36Y1108D01*
X0Y1107D02*
X37Y1107D01*
X0Y1106D02*
X38Y1106D01*
X0Y1105D02*
X39Y1105D01*
X0Y1104D02*
X40Y1104D01*
X0Y1103D02*
X41Y1103D01*
X0Y1102D02*
X41Y1102D01*
X0Y1101D02*
X42Y1101D01*
X0Y1100D02*
X43Y1100D01*
X0Y1099D02*
X44Y1099D01*
X0Y1098D02*
X44Y1098D01*
X0Y1097D02*
X45Y1097D01*
X0Y1096D02*
X45Y1096D01*
X0Y1095D02*
X46Y1095D01*
X0Y1094D02*
X46Y1094D01*
X0Y1093D02*
X47Y1093D01*
X0Y1092D02*
X47Y1092D01*
X0Y1091D02*
X48Y1091D01*
X0Y1090D02*
X48Y1090D01*
X0Y1089D02*
X49Y1089D01*
X0Y1088D02*
X49Y1088D01*
X0Y1087D02*
X49Y1087D01*
X0Y1086D02*
X49Y1086D01*
X0Y1085D02*
X50Y1085D01*
X0Y1084D02*
X50Y1084D01*
X0Y1083D02*
X50Y1083D01*
X0Y1082D02*
X50Y1082D01*
X0Y1081D02*
X50Y1081D01*
X0Y1080D02*
X50Y1080D01*
X0Y1079D02*
X50Y1079D01*
X0Y1078D02*
X50Y1078D01*
X0Y1077D02*
X50Y1077D01*
X0Y1076D02*
X50Y1076D01*
X0Y1075D02*
X50Y1075D01*
X0Y1074D02*
X50Y1074D01*
X0Y1073D02*
X50Y1073D01*
X0Y1072D02*
X50Y1072D01*
X0Y1071D02*
X50Y1071D01*
X0Y1070D02*
X49Y1070D01*
X0Y1069D02*
X49Y1069D01*
X0Y1068D02*
X49Y1068D01*
X0Y1067D02*
X48Y1067D01*
X0Y1066D02*
X48Y1066D01*
X0Y1065D02*
X48Y1065D01*
X0Y1064D02*
X47Y1064D01*
X0Y1063D02*
X47Y1063D01*
X0Y1062D02*
X46Y1062D01*
X0Y1061D02*
X46Y1061D01*
X0Y1060D02*
X45Y1060D01*
X0Y1059D02*
X45Y1059D01*
X0Y1058D02*
X44Y1058D01*
X0Y1057D02*
X43Y1057D01*
X0Y1056D02*
X43Y1056D01*
X0Y1055D02*
X42Y1055D01*
X0Y1054D02*
X41Y1054D01*
X0Y1053D02*
X40Y1053D01*
X0Y1052D02*
X39Y1052D01*
X0Y1051D02*
X38Y1051D01*
X0Y1050D02*
X37Y1050D01*
X0Y1049D02*
X36Y1049D01*
X0Y1048D02*
X35Y1048D01*
X0Y1047D02*
X34Y1047D01*
X0Y1046D02*
X33Y1046D01*
X0Y1045D02*
X31Y1045D01*
X0Y1044D02*
X30Y1044D01*
X0Y1043D02*
X28Y1043D01*
X0Y1042D02*
X26Y1042D01*
X0Y1041D02*
X24Y1041D01*
X0Y1040D02*
X22Y1040D01*
X3Y1039D02*
X18Y1039D01*
X9Y1038D02*
X12Y1038D01*
X6Y1018D02*
X15Y1018D01*
X2Y1017D02*
X20Y1017D01*
X0Y1016D02*
X23Y1016D01*
X0Y1015D02*
X25Y1015D01*
X0Y1014D02*
X27Y1014D01*
X0Y1013D02*
X29Y1013D01*
X0Y1012D02*
X30Y1012D01*
X0Y1011D02*
X32Y1011D01*
X0Y1010D02*
X33Y1010D01*
X0Y1009D02*
X35Y1009D01*
X0Y1008D02*
X36Y1008D01*
X0Y1007D02*
X37Y1007D01*
X0Y1006D02*
X38Y1006D01*
X0Y1005D02*
X39Y1005D01*
X0Y1004D02*
X40Y1004D01*
X0Y1003D02*
X41Y1003D01*
X0Y1002D02*
X41Y1002D01*
X0Y1001D02*
X42Y1001D01*
X0Y1000D02*
X43Y1000D01*
X0Y999D02*
X44Y999D01*
X0Y998D02*
X44Y998D01*
X0Y997D02*
X45Y997D01*
X0Y996D02*
X45Y996D01*
X0Y995D02*
X46Y995D01*
X0Y994D02*
X46Y994D01*
X0Y993D02*
X47Y993D01*
X0Y992D02*
X47Y992D01*
X0Y991D02*
X48Y991D01*
X0Y990D02*
X48Y990D01*
X0Y989D02*
X49Y989D01*
X0Y988D02*
X49Y988D01*
X0Y987D02*
X49Y987D01*
X0Y986D02*
X49Y986D01*
X0Y985D02*
X50Y985D01*
X0Y984D02*
X50Y984D01*
X0Y983D02*
X50Y983D01*
X0Y982D02*
X50Y982D01*
X0Y981D02*
X50Y981D01*
X0Y980D02*
X50Y980D01*
X0Y979D02*
X50Y979D01*
X0Y978D02*
X50Y978D01*
X0Y977D02*
X50Y977D01*
X0Y976D02*
X50Y976D01*
X0Y975D02*
X50Y975D01*
X0Y974D02*
X50Y974D01*
X0Y973D02*
X50Y973D01*
X0Y972D02*
X50Y972D01*
X0Y971D02*
X50Y971D01*
X0Y970D02*
X49Y970D01*
X0Y969D02*
X49Y969D01*
X0Y968D02*
X49Y968D01*
X0Y967D02*
X48Y967D01*
X0Y966D02*
X48Y966D01*
X0Y965D02*
X48Y965D01*
X0Y964D02*
X47Y964D01*
X0Y963D02*
X47Y963D01*
X0Y962D02*
X46Y962D01*
X0Y961D02*
X46Y961D01*
X0Y960D02*
X45Y960D01*
X0Y959D02*
X45Y959D01*
X0Y958D02*
X44Y958D01*
X0Y957D02*
X43Y957D01*
X0Y956D02*
X43Y956D01*
X0Y955D02*
X42Y955D01*
X0Y954D02*
X41Y954D01*
X0Y953D02*
X40Y953D01*
X0Y952D02*
X39Y952D01*
X0Y951D02*
X38Y951D01*
X0Y950D02*
X37Y950D01*
X0Y949D02*
X36Y949D01*
X0Y948D02*
X35Y948D01*
X0Y947D02*
X34Y947D01*
X0Y946D02*
X33Y946D01*
X0Y945D02*
X31Y945D01*
X0Y944D02*
X30Y944D01*
X0Y943D02*
X28Y943D01*
X0Y942D02*
X26Y942D01*
X0Y941D02*
X24Y941D01*
X0Y940D02*
X22Y940D01*
X3Y939D02*
X18Y939D01*
X9Y938D02*
X12Y938D01*
X6Y918D02*
X15Y918D01*
X2Y917D02*
X20Y917D01*
X0Y916D02*
X23Y916D01*
X0Y915D02*
X25Y915D01*
X0Y914D02*
X27Y914D01*
X0Y913D02*
X29Y913D01*
X0Y912D02*
X30Y912D01*
X0Y911D02*
X32Y911D01*
X0Y910D02*
X33Y910D01*
X0Y909D02*
X35Y909D01*
X0Y908D02*
X36Y908D01*
X0Y907D02*
X37Y907D01*
X0Y906D02*
X38Y906D01*
X0Y905D02*
X39Y905D01*
X0Y904D02*
X40Y904D01*
X0Y903D02*
X41Y903D01*
X0Y902D02*
X41Y902D01*
X0Y901D02*
X42Y901D01*
X0Y900D02*
X43Y900D01*
X0Y899D02*
X44Y899D01*
X0Y898D02*
X44Y898D01*
X0Y897D02*
X45Y897D01*
X0Y896D02*
X45Y896D01*
X0Y895D02*
X46Y895D01*
X0Y894D02*
X46Y894D01*
X0Y893D02*
X47Y893D01*
X0Y892D02*
X47Y892D01*
X0Y891D02*
X48Y891D01*
X0Y890D02*
X48Y890D01*
X0Y889D02*
X49Y889D01*
X0Y888D02*
X49Y888D01*
X0Y887D02*
X49Y887D01*
X0Y886D02*
X49Y886D01*
X0Y885D02*
X50Y885D01*
X0Y884D02*
X50Y884D01*
X0Y883D02*
X50Y883D01*
X0Y882D02*
X50Y882D01*
X0Y881D02*
X50Y881D01*
X0Y880D02*
X50Y880D01*
X0Y879D02*
X50Y879D01*
X0Y878D02*
X50Y878D01*
X0Y877D02*
X50Y877D01*
X0Y876D02*
X50Y876D01*
X0Y875D02*
X50Y875D01*
X0Y874D02*
X50Y874D01*
X0Y873D02*
X50Y873D01*
X0Y872D02*
X50Y872D01*
X0Y871D02*
X50Y871D01*
X0Y870D02*
X49Y870D01*
X0Y869D02*
X49Y869D01*
X0Y868D02*
X49Y868D01*
X0Y867D02*
X48Y867D01*
X0Y866D02*
X48Y866D01*
X0Y865D02*
X48Y865D01*
X0Y864D02*
X47Y864D01*
X0Y863D02*
X47Y863D01*
X0Y862D02*
X46Y862D01*
X0Y861D02*
X46Y861D01*
X0Y860D02*
X45Y860D01*
X0Y859D02*
X45Y859D01*
X0Y858D02*
X44Y858D01*
X0Y857D02*
X43Y857D01*
X0Y856D02*
X43Y856D01*
X0Y855D02*
X42Y855D01*
X0Y854D02*
X41Y854D01*
X0Y853D02*
X40Y853D01*
X0Y852D02*
X39Y852D01*
X0Y851D02*
X38Y851D01*
X0Y850D02*
X37Y850D01*
X0Y849D02*
X36Y849D01*
X0Y848D02*
X35Y848D01*
X0Y847D02*
X34Y847D01*
X0Y846D02*
X33Y846D01*
X0Y845D02*
X31Y845D01*
X0Y844D02*
X30Y844D01*
X0Y843D02*
X28Y843D01*
X0Y842D02*
X26Y842D01*
X0Y841D02*
X24Y841D01*
X0Y840D02*
X22Y840D01*
X3Y839D02*
X18Y839D01*
X10Y838D02*
X11Y838D01*
X6Y818D02*
X15Y818D01*
X1Y817D02*
X20Y817D01*
X0Y816D02*
X23Y816D01*
X0Y815D02*
X25Y815D01*
X0Y814D02*
X27Y814D01*
X0Y813D02*
X29Y813D01*
X0Y812D02*
X30Y812D01*
X0Y811D02*
X32Y811D01*
X0Y810D02*
X33Y810D01*
X0Y809D02*
X35Y809D01*
X0Y808D02*
X36Y808D01*
X0Y807D02*
X37Y807D01*
X0Y806D02*
X38Y806D01*
X0Y805D02*
X39Y805D01*
X0Y804D02*
X40Y804D01*
X0Y803D02*
X41Y803D01*
X0Y802D02*
X41Y802D01*
X0Y801D02*
X42Y801D01*
X0Y800D02*
X43Y800D01*
X0Y799D02*
X44Y799D01*
X0Y798D02*
X44Y798D01*
X0Y797D02*
X45Y797D01*
X0Y796D02*
X45Y796D01*
X0Y795D02*
X46Y795D01*
X0Y794D02*
X46Y794D01*
X0Y793D02*
X47Y793D01*
X0Y792D02*
X47Y792D01*
X0Y791D02*
X48Y791D01*
X0Y790D02*
X48Y790D01*
X0Y789D02*
X49Y789D01*
X0Y788D02*
X49Y788D01*
X0Y787D02*
X49Y787D01*
X0Y786D02*
X49Y786D01*
X0Y785D02*
X50Y785D01*
X0Y784D02*
X50Y784D01*
X0Y783D02*
X50Y783D01*
X0Y782D02*
X50Y782D01*
X0Y781D02*
X50Y781D01*
X0Y780D02*
X50Y780D01*
X0Y779D02*
X50Y779D01*
X0Y778D02*
X50Y778D01*
X0Y777D02*
X50Y777D01*
X0Y776D02*
X50Y776D01*
X0Y775D02*
X50Y775D01*
X0Y774D02*
X50Y774D01*
X0Y773D02*
X50Y773D01*
X0Y772D02*
X50Y772D01*
X0Y771D02*
X50Y771D01*
X0Y770D02*
X49Y770D01*
X0Y769D02*
X49Y769D01*
X0Y768D02*
X49Y768D01*
X0Y767D02*
X48Y767D01*
X0Y766D02*
X48Y766D01*
X0Y765D02*
X48Y765D01*
X0Y764D02*
X47Y764D01*
X0Y763D02*
X47Y763D01*
X0Y762D02*
X46Y762D01*
X0Y761D02*
X46Y761D01*
X0Y760D02*
X45Y760D01*
X0Y759D02*
X45Y759D01*
X0Y758D02*
X44Y758D01*
X0Y757D02*
X43Y757D01*
X0Y756D02*
X43Y756D01*
X0Y755D02*
X42Y755D01*
X0Y754D02*
X41Y754D01*
X0Y753D02*
X40Y753D01*
X0Y752D02*
X39Y752D01*
X0Y751D02*
X38Y751D01*
X0Y750D02*
X37Y750D01*
X0Y749D02*
X36Y749D01*
X0Y748D02*
X35Y748D01*
X0Y747D02*
X34Y747D01*
X0Y746D02*
X33Y746D01*
X0Y745D02*
X31Y745D01*
X0Y744D02*
X30Y744D01*
X0Y743D02*
X28Y743D01*
X0Y742D02*
X26Y742D01*
X0Y741D02*
X24Y741D01*
X0Y740D02*
X22Y740D01*
X3Y739D02*
X18Y739D01*
X10Y738D02*
X11Y738D01*
X6Y718D02*
X16Y718D01*
X1Y717D02*
X20Y717D01*
X0Y716D02*
X23Y716D01*
X0Y715D02*
X25Y715D01*
X0Y714D02*
X27Y714D01*
X0Y713D02*
X29Y713D01*
X0Y712D02*
X30Y712D01*
X0Y711D02*
X32Y711D01*
X0Y710D02*
X33Y710D01*
X0Y709D02*
X35Y709D01*
X0Y708D02*
X36Y708D01*
X0Y707D02*
X37Y707D01*
X0Y706D02*
X38Y706D01*
X0Y705D02*
X39Y705D01*
X0Y704D02*
X40Y704D01*
X0Y703D02*
X41Y703D01*
X0Y702D02*
X41Y702D01*
X0Y701D02*
X42Y701D01*
X0Y700D02*
X43Y700D01*
X0Y699D02*
X44Y699D01*
X0Y698D02*
X44Y698D01*
X0Y697D02*
X45Y697D01*
X0Y696D02*
X45Y696D01*
X0Y695D02*
X46Y695D01*
X0Y694D02*
X47Y694D01*
X0Y693D02*
X47Y693D01*
X0Y692D02*
X47Y692D01*
X0Y691D02*
X48Y691D01*
X0Y690D02*
X48Y690D01*
X0Y689D02*
X49Y689D01*
X0Y688D02*
X49Y688D01*
X0Y687D02*
X49Y687D01*
X0Y686D02*
X49Y686D01*
X0Y685D02*
X50Y685D01*
X0Y684D02*
X50Y684D01*
X0Y683D02*
X50Y683D01*
X0Y682D02*
X50Y682D01*
X0Y681D02*
X50Y681D01*
X0Y680D02*
X50Y680D01*
X0Y679D02*
X50Y679D01*
X0Y678D02*
X50Y678D01*
X0Y677D02*
X50Y677D01*
X0Y676D02*
X50Y676D01*
X0Y675D02*
X50Y675D01*
X0Y674D02*
X50Y674D01*
X0Y673D02*
X50Y673D01*
X0Y672D02*
X50Y672D01*
X0Y671D02*
X50Y671D01*
X0Y670D02*
X49Y670D01*
X0Y669D02*
X49Y669D01*
X0Y668D02*
X49Y668D01*
X0Y667D02*
X48Y667D01*
X0Y666D02*
X48Y666D01*
X0Y665D02*
X48Y665D01*
X0Y664D02*
X47Y664D01*
X0Y663D02*
X47Y663D01*
X0Y662D02*
X46Y662D01*
X0Y661D02*
X46Y661D01*
X0Y660D02*
X45Y660D01*
X0Y659D02*
X45Y659D01*
X0Y658D02*
X44Y658D01*
X0Y657D02*
X43Y657D01*
X0Y656D02*
X43Y656D01*
X0Y655D02*
X42Y655D01*
X0Y654D02*
X41Y654D01*
X0Y653D02*
X40Y653D01*
X0Y652D02*
X39Y652D01*
X0Y651D02*
X38Y651D01*
X0Y650D02*
X37Y650D01*
X0Y649D02*
X36Y649D01*
X0Y648D02*
X35Y648D01*
X0Y647D02*
X34Y647D01*
X0Y646D02*
X33Y646D01*
X0Y645D02*
X31Y645D01*
X0Y644D02*
X30Y644D01*
X0Y643D02*
X28Y643D01*
X0Y642D02*
X26Y642D01*
X0Y641D02*
X24Y641D01*
X0Y640D02*
X22Y640D01*
X3Y639D02*
X18Y639D01*
X10Y638D02*
X11Y638D01*
X6Y618D02*
X16Y618D01*
X1Y617D02*
X20Y617D01*
X0Y616D02*
X23Y616D01*
X0Y615D02*
X25Y615D01*
X0Y614D02*
X27Y614D01*
X0Y613D02*
X29Y613D01*
X0Y612D02*
X30Y612D01*
X0Y611D02*
X32Y611D01*
X0Y610D02*
X33Y610D01*
X0Y609D02*
X35Y609D01*
X0Y608D02*
X36Y608D01*
X0Y607D02*
X37Y607D01*
X0Y606D02*
X38Y606D01*
X0Y605D02*
X39Y605D01*
X0Y604D02*
X40Y604D01*
X0Y603D02*
X41Y603D01*
X0Y602D02*
X41Y602D01*
X0Y601D02*
X42Y601D01*
X0Y600D02*
X43Y600D01*
X0Y599D02*
X44Y599D01*
X0Y598D02*
X44Y598D01*
X0Y597D02*
X45Y597D01*
X0Y596D02*
X45Y596D01*
X0Y595D02*
X46Y595D01*
X0Y594D02*
X47Y594D01*
X0Y593D02*
X47Y593D01*
X0Y592D02*
X47Y592D01*
X0Y591D02*
X48Y591D01*
X0Y590D02*
X48Y590D01*
X0Y589D02*
X49Y589D01*
X0Y588D02*
X49Y588D01*
X0Y587D02*
X49Y587D01*
X0Y586D02*
X49Y586D01*
X0Y585D02*
X50Y585D01*
X0Y584D02*
X50Y584D01*
X0Y583D02*
X50Y583D01*
X0Y582D02*
X50Y582D01*
X0Y581D02*
X50Y581D01*
X0Y580D02*
X50Y580D01*
X0Y579D02*
X50Y579D01*
X0Y578D02*
X50Y578D01*
X0Y577D02*
X50Y577D01*
X0Y576D02*
X50Y576D01*
X0Y575D02*
X50Y575D01*
X0Y574D02*
X50Y574D01*
X0Y573D02*
X50Y573D01*
X0Y572D02*
X50Y572D01*
X0Y571D02*
X50Y571D01*
X0Y570D02*
X49Y570D01*
X0Y569D02*
X49Y569D01*
X0Y568D02*
X49Y568D01*
X0Y567D02*
X48Y567D01*
X0Y566D02*
X48Y566D01*
X0Y565D02*
X48Y565D01*
X0Y564D02*
X47Y564D01*
X0Y563D02*
X47Y563D01*
X0Y562D02*
X46Y562D01*
X0Y561D02*
X46Y561D01*
X0Y560D02*
X45Y560D01*
X0Y559D02*
X45Y559D01*
X0Y558D02*
X44Y558D01*
X0Y557D02*
X43Y557D01*
X0Y556D02*
X43Y556D01*
X0Y555D02*
X42Y555D01*
X0Y554D02*
X41Y554D01*
X0Y553D02*
X40Y553D01*
X0Y552D02*
X39Y552D01*
X0Y551D02*
X38Y551D01*
X0Y550D02*
X37Y550D01*
X0Y549D02*
X36Y549D01*
X0Y548D02*
X35Y548D01*
X0Y547D02*
X34Y547D01*
X0Y546D02*
X33Y546D01*
X0Y545D02*
X31Y545D01*
X0Y544D02*
X30Y544D01*
X0Y543D02*
X28Y543D01*
X0Y542D02*
X26Y542D01*
X0Y541D02*
X24Y541D01*
X0Y540D02*
X22Y540D01*
X3Y539D02*
X18Y539D01*
X10Y538D02*
X11Y538D01*
X6Y518D02*
X16Y518D01*
X1Y517D02*
X20Y517D01*
X0Y516D02*
X23Y516D01*
X0Y515D02*
X25Y515D01*
X0Y514D02*
X27Y514D01*
X0Y513D02*
X29Y513D01*
X0Y512D02*
X31Y512D01*
X0Y511D02*
X32Y511D01*
X0Y510D02*
X33Y510D01*
X0Y509D02*
X35Y509D01*
X0Y508D02*
X36Y508D01*
X0Y507D02*
X37Y507D01*
X0Y506D02*
X38Y506D01*
X0Y505D02*
X39Y505D01*
X0Y504D02*
X40Y504D01*
X0Y503D02*
X41Y503D01*
X0Y502D02*
X41Y502D01*
X0Y501D02*
X42Y501D01*
X0Y500D02*
X43Y500D01*
X0Y499D02*
X44Y499D01*
X0Y498D02*
X44Y498D01*
X0Y497D02*
X45Y497D01*
X0Y496D02*
X45Y496D01*
X0Y495D02*
X46Y495D01*
X0Y494D02*
X47Y494D01*
X0Y493D02*
X47Y493D01*
X0Y492D02*
X47Y492D01*
X0Y491D02*
X48Y491D01*
X0Y490D02*
X48Y490D01*
X0Y489D02*
X49Y489D01*
X0Y488D02*
X49Y488D01*
X0Y487D02*
X49Y487D01*
X0Y486D02*
X49Y486D01*
X0Y485D02*
X50Y485D01*
X0Y484D02*
X50Y484D01*
X0Y483D02*
X50Y483D01*
X0Y482D02*
X50Y482D01*
X0Y481D02*
X50Y481D01*
X0Y480D02*
X50Y480D01*
X0Y479D02*
X50Y479D01*
X0Y478D02*
X50Y478D01*
X0Y477D02*
X50Y477D01*
X0Y476D02*
X50Y476D01*
X0Y475D02*
X50Y475D01*
X0Y474D02*
X50Y474D01*
X0Y473D02*
X50Y473D01*
X0Y472D02*
X50Y472D01*
X0Y471D02*
X50Y471D01*
X0Y470D02*
X49Y470D01*
X0Y469D02*
X49Y469D01*
X0Y468D02*
X49Y468D01*
X0Y467D02*
X48Y467D01*
X0Y466D02*
X48Y466D01*
X0Y465D02*
X48Y465D01*
X0Y464D02*
X47Y464D01*
X0Y463D02*
X47Y463D01*
X0Y462D02*
X46Y462D01*
X0Y461D02*
X46Y461D01*
X0Y460D02*
X45Y460D01*
X0Y459D02*
X45Y459D01*
X0Y458D02*
X44Y458D01*
X0Y457D02*
X43Y457D01*
X0Y456D02*
X43Y456D01*
X0Y455D02*
X42Y455D01*
X0Y454D02*
X41Y454D01*
X0Y453D02*
X40Y453D01*
X0Y452D02*
X39Y452D01*
X0Y451D02*
X38Y451D01*
X0Y450D02*
X37Y450D01*
X0Y449D02*
X36Y449D01*
X0Y448D02*
X35Y448D01*
X0Y447D02*
X34Y447D01*
X0Y446D02*
X33Y446D01*
X0Y445D02*
X31Y445D01*
X0Y444D02*
X30Y444D01*
X0Y443D02*
X28Y443D01*
X0Y442D02*
X26Y442D01*
X0Y441D02*
X24Y441D01*
X0Y440D02*
X22Y440D01*
X3Y439D02*
X18Y439D01*
X10Y438D02*
X11Y438D01*
D02*
G04 End of Mask1*
M02*