G04 MADE WITH FRITZING*
G04 WWW.FRITZING.ORG*
G04 DOUBLE SIDED*
G04 HOLES PLATED*
G04 CONTOUR ON CENTER OF CONTOUR VECTOR*
%ASAXBY*%
%FSLAX23Y23*%
%MOIN*%
%OFA0B0*%
%SFA1.0B1.0*%
%ADD10C,0.062992*%
%ADD11C,0.075000*%
%ADD12C,0.078000*%
%ADD13C,0.070555*%
%ADD14C,0.070583*%
%ADD15R,0.062992X0.062992*%
%ADD16R,0.078000X0.078000*%
%ADD17R,0.075000X0.075000*%
%ADD18R,0.001000X0.001000*%
%LNCOPPER0*%
G90*
G70*
G54D10*
X1211Y1179D03*
X1211Y1278D03*
G54D11*
X1611Y1978D03*
G54D12*
X1211Y2178D03*
X1211Y2078D03*
X1211Y1978D03*
X1211Y1678D03*
X1211Y1578D03*
X1211Y1478D03*
G54D13*
X611Y2078D03*
X611Y1978D03*
X611Y1878D03*
X611Y1778D03*
X611Y1678D03*
X611Y1578D03*
X611Y1278D03*
G54D14*
X611Y1178D03*
G54D13*
X611Y1378D03*
X611Y1478D03*
G54D14*
X611Y1078D03*
X611Y978D03*
G54D13*
X611Y878D03*
X611Y778D03*
G54D14*
X611Y678D03*
X611Y578D03*
X611Y478D03*
G54D11*
X657Y2125D03*
X957Y2125D03*
X657Y2025D03*
X957Y2025D03*
X657Y1925D03*
X957Y1925D03*
X657Y1825D03*
X957Y1825D03*
X657Y1725D03*
X957Y1725D03*
X657Y1625D03*
X957Y1625D03*
X657Y1525D03*
X957Y1525D03*
X657Y1425D03*
X957Y1425D03*
G54D15*
X1211Y1179D03*
G54D16*
X1211Y2178D03*
X1211Y1678D03*
G54D17*
X657Y2125D03*
G54D18*
X0Y2113D02*
X45Y2113D01*
X0Y2112D02*
X45Y2112D01*
X0Y2111D02*
X45Y2111D01*
X0Y2110D02*
X45Y2110D01*
X0Y2109D02*
X45Y2109D01*
X0Y2108D02*
X45Y2108D01*
X0Y2107D02*
X45Y2107D01*
X0Y2106D02*
X45Y2106D01*
X0Y2105D02*
X45Y2105D01*
X0Y2104D02*
X45Y2104D01*
X0Y2103D02*
X45Y2103D01*
X0Y2102D02*
X45Y2102D01*
X0Y2101D02*
X45Y2101D01*
X0Y2100D02*
X45Y2100D01*
X0Y2099D02*
X45Y2099D01*
X0Y2098D02*
X45Y2098D01*
X0Y2097D02*
X45Y2097D01*
X0Y2096D02*
X5Y2096D01*
X17Y2096D02*
X45Y2096D01*
X0Y2095D02*
X2Y2095D01*
X20Y2095D02*
X45Y2095D01*
X0Y2094D02*
X0Y2094D01*
X22Y2094D02*
X45Y2094D01*
X23Y2093D02*
X45Y2093D01*
X24Y2092D02*
X45Y2092D01*
X25Y2091D02*
X45Y2091D01*
X26Y2090D02*
X45Y2090D01*
X27Y2089D02*
X45Y2089D01*
X27Y2088D02*
X45Y2088D01*
X28Y2087D02*
X45Y2087D01*
X28Y2086D02*
X45Y2086D01*
X29Y2085D02*
X45Y2085D01*
X29Y2084D02*
X45Y2084D01*
X29Y2083D02*
X45Y2083D01*
X29Y2082D02*
X45Y2082D01*
X29Y2081D02*
X45Y2081D01*
X30Y2080D02*
X45Y2080D01*
X30Y2079D02*
X45Y2079D01*
X30Y2078D02*
X45Y2078D01*
X30Y2077D02*
X45Y2077D01*
X30Y2076D02*
X45Y2076D01*
X29Y2075D02*
X45Y2075D01*
X29Y2074D02*
X45Y2074D01*
X29Y2073D02*
X45Y2073D01*
X29Y2072D02*
X45Y2072D01*
X29Y2071D02*
X45Y2071D01*
X28Y2070D02*
X45Y2070D01*
X28Y2069D02*
X45Y2069D01*
X27Y2068D02*
X45Y2068D01*
X27Y2067D02*
X45Y2067D01*
X26Y2066D02*
X45Y2066D01*
X25Y2065D02*
X45Y2065D01*
X24Y2064D02*
X45Y2064D01*
X23Y2063D02*
X45Y2063D01*
X0Y2062D02*
X0Y2062D01*
X21Y2062D02*
X45Y2062D01*
X0Y2061D02*
X2Y2061D01*
X19Y2061D02*
X45Y2061D01*
X0Y2060D02*
X5Y2060D01*
X16Y2060D02*
X45Y2060D01*
X0Y2059D02*
X45Y2059D01*
X0Y2058D02*
X45Y2058D01*
X0Y2057D02*
X45Y2057D01*
X0Y2056D02*
X45Y2056D01*
X0Y2055D02*
X45Y2055D01*
X0Y2054D02*
X45Y2054D01*
X0Y2053D02*
X45Y2053D01*
X0Y2052D02*
X45Y2052D01*
X0Y2051D02*
X45Y2051D01*
X0Y2050D02*
X45Y2050D01*
X0Y2049D02*
X45Y2049D01*
X0Y2048D02*
X45Y2048D01*
X0Y2047D02*
X45Y2047D01*
X0Y2046D02*
X45Y2046D01*
X0Y2045D02*
X45Y2045D01*
X0Y2044D02*
X45Y2044D01*
X0Y2043D02*
X45Y2043D01*
X7Y2013D02*
X15Y2013D01*
X2Y2012D02*
X19Y2012D01*
X0Y2011D02*
X22Y2011D01*
X0Y2010D02*
X24Y2010D01*
X0Y2009D02*
X26Y2009D01*
X0Y2008D02*
X28Y2008D01*
X0Y2007D02*
X29Y2007D01*
X0Y2006D02*
X31Y2006D01*
X0Y2005D02*
X32Y2005D01*
X0Y2004D02*
X33Y2004D01*
X0Y2003D02*
X34Y2003D01*
X0Y2002D02*
X35Y2002D01*
X0Y2001D02*
X36Y2001D01*
X0Y2000D02*
X37Y2000D01*
X0Y1999D02*
X38Y1999D01*
X0Y1998D02*
X39Y1998D01*
X0Y1997D02*
X39Y1997D01*
X0Y1996D02*
X5Y1996D01*
X17Y1996D02*
X40Y1996D01*
X0Y1995D02*
X2Y1995D01*
X20Y1995D02*
X41Y1995D01*
X0Y1994D02*
X0Y1994D01*
X22Y1994D02*
X41Y1994D01*
X23Y1993D02*
X42Y1993D01*
X24Y1992D02*
X42Y1992D01*
X25Y1991D02*
X43Y1991D01*
X26Y1990D02*
X43Y1990D01*
X27Y1989D02*
X43Y1989D01*
X27Y1988D02*
X44Y1988D01*
X28Y1987D02*
X44Y1987D01*
X28Y1986D02*
X44Y1986D01*
X29Y1985D02*
X45Y1985D01*
X29Y1984D02*
X45Y1984D01*
X29Y1983D02*
X45Y1983D01*
X29Y1982D02*
X45Y1982D01*
X29Y1981D02*
X45Y1981D01*
X30Y1980D02*
X45Y1980D01*
X30Y1979D02*
X45Y1979D01*
X30Y1978D02*
X45Y1978D01*
X30Y1977D02*
X45Y1977D01*
X30Y1976D02*
X45Y1976D01*
X29Y1975D02*
X45Y1975D01*
X29Y1974D02*
X45Y1974D01*
X29Y1973D02*
X45Y1973D01*
X29Y1972D02*
X45Y1972D01*
X29Y1971D02*
X45Y1971D01*
X28Y1970D02*
X44Y1970D01*
X28Y1969D02*
X44Y1969D01*
X27Y1968D02*
X44Y1968D01*
X27Y1967D02*
X43Y1967D01*
X26Y1966D02*
X43Y1966D01*
X25Y1965D02*
X42Y1965D01*
X24Y1964D02*
X42Y1964D01*
X23Y1963D02*
X42Y1963D01*
X0Y1962D02*
X0Y1962D01*
X21Y1962D02*
X41Y1962D01*
X0Y1961D02*
X2Y1961D01*
X19Y1961D02*
X40Y1961D01*
X0Y1960D02*
X5Y1960D01*
X16Y1960D02*
X40Y1960D01*
X0Y1959D02*
X39Y1959D01*
X0Y1958D02*
X38Y1958D01*
X0Y1957D02*
X38Y1957D01*
X0Y1956D02*
X37Y1956D01*
X0Y1955D02*
X36Y1955D01*
X0Y1954D02*
X35Y1954D01*
X0Y1953D02*
X34Y1953D01*
X0Y1952D02*
X33Y1952D01*
X0Y1951D02*
X32Y1951D01*
X0Y1950D02*
X30Y1950D01*
X0Y1949D02*
X29Y1949D01*
X0Y1948D02*
X28Y1948D01*
X0Y1947D02*
X26Y1947D01*
X0Y1946D02*
X24Y1946D01*
X0Y1945D02*
X21Y1945D01*
X3Y1944D02*
X18Y1944D01*
X8Y1943D02*
X13Y1943D01*
X7Y1913D02*
X15Y1913D01*
X2Y1912D02*
X19Y1912D01*
X0Y1911D02*
X22Y1911D01*
X0Y1910D02*
X24Y1910D01*
X0Y1909D02*
X26Y1909D01*
X0Y1908D02*
X28Y1908D01*
X0Y1907D02*
X29Y1907D01*
X0Y1906D02*
X31Y1906D01*
X0Y1905D02*
X32Y1905D01*
X0Y1904D02*
X33Y1904D01*
X0Y1903D02*
X34Y1903D01*
X0Y1902D02*
X35Y1902D01*
X0Y1901D02*
X36Y1901D01*
X0Y1900D02*
X37Y1900D01*
X0Y1899D02*
X38Y1899D01*
X0Y1898D02*
X39Y1898D01*
X0Y1897D02*
X39Y1897D01*
X0Y1896D02*
X5Y1896D01*
X17Y1896D02*
X40Y1896D01*
X0Y1895D02*
X2Y1895D01*
X20Y1895D02*
X41Y1895D01*
X0Y1894D02*
X0Y1894D01*
X22Y1894D02*
X41Y1894D01*
X23Y1893D02*
X42Y1893D01*
X24Y1892D02*
X42Y1892D01*
X25Y1891D02*
X43Y1891D01*
X26Y1890D02*
X43Y1890D01*
X27Y1889D02*
X43Y1889D01*
X27Y1888D02*
X44Y1888D01*
X28Y1887D02*
X44Y1887D01*
X28Y1886D02*
X44Y1886D01*
X29Y1885D02*
X45Y1885D01*
X29Y1884D02*
X45Y1884D01*
X29Y1883D02*
X45Y1883D01*
X29Y1882D02*
X45Y1882D01*
X29Y1881D02*
X45Y1881D01*
X30Y1880D02*
X45Y1880D01*
X30Y1879D02*
X45Y1879D01*
X30Y1878D02*
X45Y1878D01*
X30Y1877D02*
X45Y1877D01*
X30Y1876D02*
X45Y1876D01*
X29Y1875D02*
X45Y1875D01*
X29Y1874D02*
X45Y1874D01*
X29Y1873D02*
X45Y1873D01*
X29Y1872D02*
X45Y1872D01*
X29Y1871D02*
X45Y1871D01*
X28Y1870D02*
X44Y1870D01*
X28Y1869D02*
X44Y1869D01*
X27Y1868D02*
X44Y1868D01*
X27Y1867D02*
X43Y1867D01*
X26Y1866D02*
X43Y1866D01*
X25Y1865D02*
X42Y1865D01*
X24Y1864D02*
X42Y1864D01*
X23Y1863D02*
X41Y1863D01*
X0Y1862D02*
X0Y1862D01*
X21Y1862D02*
X41Y1862D01*
X0Y1861D02*
X2Y1861D01*
X19Y1861D02*
X40Y1861D01*
X0Y1860D02*
X5Y1860D01*
X16Y1860D02*
X40Y1860D01*
X0Y1859D02*
X39Y1859D01*
X0Y1858D02*
X38Y1858D01*
X0Y1857D02*
X38Y1857D01*
X0Y1856D02*
X37Y1856D01*
X0Y1855D02*
X36Y1855D01*
X0Y1854D02*
X35Y1854D01*
X0Y1853D02*
X34Y1853D01*
X0Y1852D02*
X33Y1852D01*
X0Y1851D02*
X32Y1851D01*
X0Y1850D02*
X30Y1850D01*
X0Y1849D02*
X29Y1849D01*
X0Y1848D02*
X27Y1848D01*
X0Y1847D02*
X26Y1847D01*
X0Y1846D02*
X24Y1846D01*
X0Y1845D02*
X21Y1845D01*
X3Y1844D02*
X18Y1844D01*
X8Y1843D02*
X13Y1843D01*
X7Y1813D02*
X15Y1813D01*
X2Y1812D02*
X19Y1812D01*
X0Y1811D02*
X22Y1811D01*
X0Y1810D02*
X24Y1810D01*
X0Y1809D02*
X26Y1809D01*
X0Y1808D02*
X28Y1808D01*
X0Y1807D02*
X29Y1807D01*
X0Y1806D02*
X31Y1806D01*
X0Y1805D02*
X32Y1805D01*
X0Y1804D02*
X33Y1804D01*
X0Y1803D02*
X34Y1803D01*
X0Y1802D02*
X35Y1802D01*
X0Y1801D02*
X36Y1801D01*
X0Y1800D02*
X37Y1800D01*
X0Y1799D02*
X38Y1799D01*
X0Y1798D02*
X39Y1798D01*
X0Y1797D02*
X39Y1797D01*
X0Y1796D02*
X5Y1796D01*
X17Y1796D02*
X40Y1796D01*
X0Y1795D02*
X2Y1795D01*
X20Y1795D02*
X41Y1795D01*
X0Y1794D02*
X0Y1794D01*
X22Y1794D02*
X41Y1794D01*
X23Y1793D02*
X42Y1793D01*
X24Y1792D02*
X42Y1792D01*
X25Y1791D02*
X43Y1791D01*
X26Y1790D02*
X43Y1790D01*
X27Y1789D02*
X43Y1789D01*
X27Y1788D02*
X44Y1788D01*
X28Y1787D02*
X44Y1787D01*
X28Y1786D02*
X44Y1786D01*
X29Y1785D02*
X45Y1785D01*
X29Y1784D02*
X45Y1784D01*
X29Y1783D02*
X45Y1783D01*
X29Y1782D02*
X45Y1782D01*
X29Y1781D02*
X45Y1781D01*
X30Y1780D02*
X45Y1780D01*
X30Y1779D02*
X45Y1779D01*
X30Y1778D02*
X45Y1778D01*
X30Y1777D02*
X45Y1777D01*
X30Y1776D02*
X45Y1776D01*
X29Y1775D02*
X45Y1775D01*
X29Y1774D02*
X45Y1774D01*
X29Y1773D02*
X45Y1773D01*
X29Y1772D02*
X45Y1772D01*
X29Y1771D02*
X45Y1771D01*
X28Y1770D02*
X44Y1770D01*
X28Y1769D02*
X44Y1769D01*
X27Y1768D02*
X44Y1768D01*
X27Y1767D02*
X43Y1767D01*
X26Y1766D02*
X43Y1766D01*
X25Y1765D02*
X42Y1765D01*
X24Y1764D02*
X42Y1764D01*
X23Y1763D02*
X41Y1763D01*
X0Y1762D02*
X0Y1762D01*
X21Y1762D02*
X41Y1762D01*
X0Y1761D02*
X2Y1761D01*
X19Y1761D02*
X40Y1761D01*
X0Y1760D02*
X5Y1760D01*
X16Y1760D02*
X40Y1760D01*
X0Y1759D02*
X39Y1759D01*
X0Y1758D02*
X38Y1758D01*
X0Y1757D02*
X38Y1757D01*
X0Y1756D02*
X37Y1756D01*
X0Y1755D02*
X36Y1755D01*
X0Y1754D02*
X35Y1754D01*
X0Y1753D02*
X34Y1753D01*
X0Y1752D02*
X33Y1752D01*
X0Y1751D02*
X32Y1751D01*
X0Y1750D02*
X30Y1750D01*
X0Y1749D02*
X29Y1749D01*
X0Y1748D02*
X27Y1748D01*
X0Y1747D02*
X26Y1747D01*
X0Y1746D02*
X24Y1746D01*
X0Y1745D02*
X21Y1745D01*
X3Y1744D02*
X18Y1744D01*
X8Y1743D02*
X13Y1743D01*
X6Y1713D02*
X15Y1713D01*
X2Y1712D02*
X19Y1712D01*
X0Y1711D02*
X22Y1711D01*
X0Y1710D02*
X24Y1710D01*
X0Y1709D02*
X26Y1709D01*
X0Y1708D02*
X28Y1708D01*
X0Y1707D02*
X29Y1707D01*
X0Y1706D02*
X31Y1706D01*
X0Y1705D02*
X32Y1705D01*
X0Y1704D02*
X33Y1704D01*
X0Y1703D02*
X34Y1703D01*
X0Y1702D02*
X35Y1702D01*
X0Y1701D02*
X36Y1701D01*
X0Y1700D02*
X37Y1700D01*
X0Y1699D02*
X38Y1699D01*
X0Y1698D02*
X39Y1698D01*
X0Y1697D02*
X39Y1697D01*
X0Y1696D02*
X5Y1696D01*
X17Y1696D02*
X40Y1696D01*
X0Y1695D02*
X2Y1695D01*
X20Y1695D02*
X41Y1695D01*
X22Y1694D02*
X41Y1694D01*
X23Y1693D02*
X42Y1693D01*
X24Y1692D02*
X42Y1692D01*
X25Y1691D02*
X43Y1691D01*
X26Y1690D02*
X43Y1690D01*
X27Y1689D02*
X43Y1689D01*
X27Y1688D02*
X44Y1688D01*
X28Y1687D02*
X44Y1687D01*
X28Y1686D02*
X44Y1686D01*
X29Y1685D02*
X45Y1685D01*
X29Y1684D02*
X45Y1684D01*
X29Y1683D02*
X45Y1683D01*
X29Y1682D02*
X45Y1682D01*
X29Y1681D02*
X45Y1681D01*
X30Y1680D02*
X45Y1680D01*
X30Y1679D02*
X45Y1679D01*
X30Y1678D02*
X45Y1678D01*
X30Y1677D02*
X45Y1677D01*
X30Y1676D02*
X45Y1676D01*
X29Y1675D02*
X45Y1675D01*
X29Y1674D02*
X45Y1674D01*
X29Y1673D02*
X45Y1673D01*
X29Y1672D02*
X45Y1672D01*
X29Y1671D02*
X45Y1671D01*
X28Y1670D02*
X44Y1670D01*
X28Y1669D02*
X44Y1669D01*
X27Y1668D02*
X44Y1668D01*
X27Y1667D02*
X43Y1667D01*
X26Y1666D02*
X43Y1666D01*
X25Y1665D02*
X42Y1665D01*
X24Y1664D02*
X42Y1664D01*
X23Y1663D02*
X41Y1663D01*
X0Y1662D02*
X0Y1662D01*
X21Y1662D02*
X41Y1662D01*
X0Y1661D02*
X2Y1661D01*
X19Y1661D02*
X40Y1661D01*
X0Y1660D02*
X5Y1660D01*
X16Y1660D02*
X40Y1660D01*
X0Y1659D02*
X39Y1659D01*
X0Y1658D02*
X38Y1658D01*
X0Y1657D02*
X38Y1657D01*
X0Y1656D02*
X37Y1656D01*
X0Y1655D02*
X36Y1655D01*
X0Y1654D02*
X35Y1654D01*
X0Y1653D02*
X34Y1653D01*
X0Y1652D02*
X33Y1652D01*
X0Y1651D02*
X32Y1651D01*
X0Y1650D02*
X30Y1650D01*
X0Y1649D02*
X29Y1649D01*
X0Y1648D02*
X27Y1648D01*
X0Y1647D02*
X26Y1647D01*
X0Y1646D02*
X24Y1646D01*
X0Y1645D02*
X21Y1645D01*
X3Y1644D02*
X18Y1644D01*
X8Y1643D02*
X13Y1643D01*
X6Y1613D02*
X15Y1613D01*
X2Y1612D02*
X19Y1612D01*
X0Y1611D02*
X22Y1611D01*
X0Y1610D02*
X24Y1610D01*
X0Y1609D02*
X26Y1609D01*
X0Y1608D02*
X28Y1608D01*
X0Y1607D02*
X29Y1607D01*
X0Y1606D02*
X31Y1606D01*
X0Y1605D02*
X32Y1605D01*
X0Y1604D02*
X33Y1604D01*
X0Y1603D02*
X34Y1603D01*
X0Y1602D02*
X35Y1602D01*
X0Y1601D02*
X36Y1601D01*
X0Y1600D02*
X37Y1600D01*
X0Y1599D02*
X38Y1599D01*
X0Y1598D02*
X39Y1598D01*
X0Y1597D02*
X39Y1597D01*
X0Y1596D02*
X4Y1596D01*
X17Y1596D02*
X40Y1596D01*
X0Y1595D02*
X1Y1595D01*
X20Y1595D02*
X41Y1595D01*
X22Y1594D02*
X41Y1594D01*
X23Y1593D02*
X42Y1593D01*
X24Y1592D02*
X42Y1592D01*
X25Y1591D02*
X43Y1591D01*
X26Y1590D02*
X43Y1590D01*
X27Y1589D02*
X43Y1589D01*
X27Y1588D02*
X44Y1588D01*
X28Y1587D02*
X44Y1587D01*
X28Y1586D02*
X44Y1586D01*
X29Y1585D02*
X45Y1585D01*
X29Y1584D02*
X45Y1584D01*
X29Y1583D02*
X45Y1583D01*
X29Y1582D02*
X45Y1582D01*
X29Y1581D02*
X45Y1581D01*
X30Y1580D02*
X45Y1580D01*
X30Y1579D02*
X45Y1579D01*
X30Y1578D02*
X45Y1578D01*
X30Y1577D02*
X45Y1577D01*
X30Y1576D02*
X45Y1576D01*
X29Y1575D02*
X45Y1575D01*
X29Y1574D02*
X45Y1574D01*
X29Y1573D02*
X45Y1573D01*
X29Y1572D02*
X45Y1572D01*
X29Y1571D02*
X45Y1571D01*
X28Y1570D02*
X44Y1570D01*
X28Y1569D02*
X44Y1569D01*
X27Y1568D02*
X44Y1568D01*
X27Y1567D02*
X43Y1567D01*
X26Y1566D02*
X43Y1566D01*
X25Y1565D02*
X42Y1565D01*
X24Y1564D02*
X42Y1564D01*
X23Y1563D02*
X41Y1563D01*
X0Y1562D02*
X0Y1562D01*
X21Y1562D02*
X41Y1562D01*
X0Y1561D02*
X2Y1561D01*
X19Y1561D02*
X40Y1561D01*
X0Y1560D02*
X5Y1560D01*
X16Y1560D02*
X40Y1560D01*
X0Y1559D02*
X39Y1559D01*
X0Y1558D02*
X38Y1558D01*
X0Y1557D02*
X38Y1557D01*
X0Y1556D02*
X37Y1556D01*
X0Y1555D02*
X36Y1555D01*
X0Y1554D02*
X35Y1554D01*
X0Y1553D02*
X34Y1553D01*
X0Y1552D02*
X33Y1552D01*
X0Y1551D02*
X32Y1551D01*
X0Y1550D02*
X30Y1550D01*
X0Y1549D02*
X29Y1549D01*
X0Y1548D02*
X27Y1548D01*
X0Y1547D02*
X26Y1547D01*
X0Y1546D02*
X24Y1546D01*
X0Y1545D02*
X21Y1545D01*
X3Y1544D02*
X18Y1544D01*
X9Y1543D02*
X13Y1543D01*
X6Y1513D02*
X15Y1513D01*
X2Y1512D02*
X19Y1512D01*
X0Y1511D02*
X22Y1511D01*
X0Y1510D02*
X24Y1510D01*
X0Y1509D02*
X26Y1509D01*
X0Y1508D02*
X28Y1508D01*
X0Y1507D02*
X29Y1507D01*
X0Y1506D02*
X31Y1506D01*
X0Y1505D02*
X32Y1505D01*
X0Y1504D02*
X33Y1504D01*
X0Y1503D02*
X34Y1503D01*
X0Y1502D02*
X35Y1502D01*
X0Y1501D02*
X36Y1501D01*
X0Y1500D02*
X37Y1500D01*
X0Y1499D02*
X38Y1499D01*
X0Y1498D02*
X39Y1498D01*
X0Y1497D02*
X39Y1497D01*
X0Y1496D02*
X4Y1496D01*
X17Y1496D02*
X40Y1496D01*
X0Y1495D02*
X1Y1495D01*
X20Y1495D02*
X41Y1495D01*
X22Y1494D02*
X41Y1494D01*
X23Y1493D02*
X42Y1493D01*
X24Y1492D02*
X42Y1492D01*
X25Y1491D02*
X43Y1491D01*
X26Y1490D02*
X43Y1490D01*
X27Y1489D02*
X43Y1489D01*
X27Y1488D02*
X44Y1488D01*
X28Y1487D02*
X44Y1487D01*
X28Y1486D02*
X44Y1486D01*
X29Y1485D02*
X45Y1485D01*
X29Y1484D02*
X45Y1484D01*
X29Y1483D02*
X45Y1483D01*
X29Y1482D02*
X45Y1482D01*
X29Y1481D02*
X45Y1481D01*
X30Y1480D02*
X45Y1480D01*
X30Y1479D02*
X45Y1479D01*
X30Y1478D02*
X45Y1478D01*
X30Y1477D02*
X45Y1477D01*
X30Y1476D02*
X45Y1476D01*
X29Y1475D02*
X45Y1475D01*
X29Y1474D02*
X45Y1474D01*
X29Y1473D02*
X45Y1473D01*
X29Y1472D02*
X45Y1472D01*
X29Y1471D02*
X45Y1471D01*
X28Y1470D02*
X44Y1470D01*
X28Y1469D02*
X44Y1469D01*
X27Y1468D02*
X44Y1468D01*
X27Y1467D02*
X43Y1467D01*
X26Y1466D02*
X43Y1466D01*
X25Y1465D02*
X42Y1465D01*
X24Y1464D02*
X42Y1464D01*
X23Y1463D02*
X41Y1463D01*
X0Y1462D02*
X0Y1462D01*
X21Y1462D02*
X41Y1462D01*
X0Y1461D02*
X2Y1461D01*
X19Y1461D02*
X40Y1461D01*
X0Y1460D02*
X6Y1460D01*
X16Y1460D02*
X40Y1460D01*
X0Y1459D02*
X39Y1459D01*
X0Y1458D02*
X38Y1458D01*
X0Y1457D02*
X38Y1457D01*
X0Y1456D02*
X37Y1456D01*
X0Y1455D02*
X36Y1455D01*
X0Y1454D02*
X35Y1454D01*
X0Y1453D02*
X34Y1453D01*
X0Y1452D02*
X33Y1452D01*
X0Y1451D02*
X32Y1451D01*
X0Y1450D02*
X30Y1450D01*
X0Y1449D02*
X29Y1449D01*
X0Y1448D02*
X27Y1448D01*
X0Y1447D02*
X26Y1447D01*
X0Y1446D02*
X24Y1446D01*
X0Y1445D02*
X21Y1445D01*
X3Y1444D02*
X18Y1444D01*
X9Y1443D02*
X12Y1443D01*
X6Y1413D02*
X15Y1413D01*
X2Y1412D02*
X19Y1412D01*
X0Y1411D02*
X22Y1411D01*
X0Y1410D02*
X24Y1410D01*
X0Y1409D02*
X26Y1409D01*
X0Y1408D02*
X28Y1408D01*
X0Y1407D02*
X29Y1407D01*
X0Y1406D02*
X31Y1406D01*
X0Y1405D02*
X32Y1405D01*
X0Y1404D02*
X33Y1404D01*
X0Y1403D02*
X34Y1403D01*
X0Y1402D02*
X35Y1402D01*
X0Y1401D02*
X36Y1401D01*
X0Y1400D02*
X37Y1400D01*
X0Y1399D02*
X38Y1399D01*
X0Y1398D02*
X39Y1398D01*
X0Y1397D02*
X39Y1397D01*
X0Y1396D02*
X4Y1396D01*
X17Y1396D02*
X40Y1396D01*
X0Y1395D02*
X1Y1395D01*
X20Y1395D02*
X41Y1395D01*
X22Y1394D02*
X41Y1394D01*
X23Y1393D02*
X42Y1393D01*
X24Y1392D02*
X42Y1392D01*
X25Y1391D02*
X43Y1391D01*
X26Y1390D02*
X43Y1390D01*
X27Y1389D02*
X43Y1389D01*
X27Y1388D02*
X44Y1388D01*
X28Y1387D02*
X44Y1387D01*
X28Y1386D02*
X44Y1386D01*
X29Y1385D02*
X45Y1385D01*
X29Y1384D02*
X45Y1384D01*
X29Y1383D02*
X45Y1383D01*
X29Y1382D02*
X45Y1382D01*
X29Y1381D02*
X45Y1381D01*
X30Y1380D02*
X45Y1380D01*
X30Y1379D02*
X45Y1379D01*
X30Y1378D02*
X45Y1378D01*
X30Y1377D02*
X45Y1377D01*
X30Y1376D02*
X45Y1376D01*
X29Y1375D02*
X45Y1375D01*
X29Y1374D02*
X45Y1374D01*
X29Y1373D02*
X45Y1373D01*
X29Y1372D02*
X45Y1372D01*
X29Y1371D02*
X45Y1371D01*
X28Y1370D02*
X44Y1370D01*
X28Y1369D02*
X44Y1369D01*
X27Y1368D02*
X44Y1368D01*
X27Y1367D02*
X43Y1367D01*
X26Y1366D02*
X43Y1366D01*
X25Y1365D02*
X42Y1365D01*
X24Y1364D02*
X42Y1364D01*
X23Y1363D02*
X41Y1363D01*
X0Y1362D02*
X0Y1362D01*
X21Y1362D02*
X41Y1362D01*
X0Y1361D02*
X2Y1361D01*
X19Y1361D02*
X40Y1361D01*
X0Y1360D02*
X6Y1360D01*
X16Y1360D02*
X40Y1360D01*
X0Y1359D02*
X39Y1359D01*
X0Y1358D02*
X38Y1358D01*
X0Y1357D02*
X38Y1357D01*
X0Y1356D02*
X37Y1356D01*
X0Y1355D02*
X36Y1355D01*
X0Y1354D02*
X35Y1354D01*
X0Y1353D02*
X34Y1353D01*
X0Y1352D02*
X33Y1352D01*
X0Y1351D02*
X32Y1351D01*
X0Y1350D02*
X30Y1350D01*
X0Y1349D02*
X29Y1349D01*
X0Y1348D02*
X27Y1348D01*
X0Y1347D02*
X26Y1347D01*
X0Y1346D02*
X24Y1346D01*
X0Y1345D02*
X21Y1345D01*
X3Y1344D02*
X18Y1344D01*
X9Y1343D02*
X12Y1343D01*
X6Y1313D02*
X15Y1313D01*
X2Y1312D02*
X19Y1312D01*
X0Y1311D02*
X22Y1311D01*
X0Y1310D02*
X24Y1310D01*
X0Y1309D02*
X26Y1309D01*
X0Y1308D02*
X28Y1308D01*
X0Y1307D02*
X29Y1307D01*
X0Y1306D02*
X31Y1306D01*
X0Y1305D02*
X32Y1305D01*
X0Y1304D02*
X33Y1304D01*
X0Y1303D02*
X34Y1303D01*
X0Y1302D02*
X35Y1302D01*
X0Y1301D02*
X36Y1301D01*
X0Y1300D02*
X37Y1300D01*
X0Y1299D02*
X38Y1299D01*
X0Y1298D02*
X39Y1298D01*
X0Y1297D02*
X39Y1297D01*
X0Y1296D02*
X4Y1296D01*
X17Y1296D02*
X40Y1296D01*
X0Y1295D02*
X1Y1295D01*
X20Y1295D02*
X41Y1295D01*
X22Y1294D02*
X41Y1294D01*
X23Y1293D02*
X42Y1293D01*
X24Y1292D02*
X42Y1292D01*
X25Y1291D02*
X43Y1291D01*
X26Y1290D02*
X43Y1290D01*
X27Y1289D02*
X43Y1289D01*
X27Y1288D02*
X44Y1288D01*
X28Y1287D02*
X44Y1287D01*
X28Y1286D02*
X44Y1286D01*
X29Y1285D02*
X45Y1285D01*
X29Y1284D02*
X45Y1284D01*
X29Y1283D02*
X45Y1283D01*
X29Y1282D02*
X45Y1282D01*
X29Y1281D02*
X45Y1281D01*
X30Y1280D02*
X45Y1280D01*
X30Y1279D02*
X45Y1279D01*
X30Y1278D02*
X45Y1278D01*
X30Y1277D02*
X45Y1277D01*
X30Y1276D02*
X45Y1276D01*
X29Y1275D02*
X45Y1275D01*
X29Y1274D02*
X45Y1274D01*
X29Y1273D02*
X45Y1273D01*
X29Y1272D02*
X45Y1272D01*
X29Y1271D02*
X45Y1271D01*
X28Y1270D02*
X44Y1270D01*
X28Y1269D02*
X44Y1269D01*
X27Y1268D02*
X44Y1268D01*
X27Y1267D02*
X43Y1267D01*
X26Y1266D02*
X43Y1266D01*
X25Y1265D02*
X42Y1265D01*
X24Y1264D02*
X42Y1264D01*
X23Y1263D02*
X41Y1263D01*
X0Y1262D02*
X0Y1262D01*
X21Y1262D02*
X41Y1262D01*
X0Y1261D02*
X2Y1261D01*
X19Y1261D02*
X40Y1261D01*
X0Y1260D02*
X6Y1260D01*
X16Y1260D02*
X40Y1260D01*
X0Y1259D02*
X39Y1259D01*
X0Y1258D02*
X38Y1258D01*
X0Y1257D02*
X38Y1257D01*
X0Y1256D02*
X37Y1256D01*
X0Y1255D02*
X36Y1255D01*
X0Y1254D02*
X35Y1254D01*
X0Y1253D02*
X34Y1253D01*
X0Y1252D02*
X33Y1252D01*
X0Y1251D02*
X32Y1251D01*
X0Y1250D02*
X30Y1250D01*
X0Y1249D02*
X29Y1249D01*
X0Y1248D02*
X27Y1248D01*
X0Y1247D02*
X26Y1247D01*
X0Y1246D02*
X24Y1246D01*
X0Y1245D02*
X21Y1245D01*
X3Y1244D02*
X18Y1244D01*
X9Y1243D02*
X12Y1243D01*
X6Y1213D02*
X15Y1213D01*
X2Y1212D02*
X19Y1212D01*
X0Y1211D02*
X22Y1211D01*
X0Y1210D02*
X24Y1210D01*
X0Y1209D02*
X26Y1209D01*
X0Y1208D02*
X28Y1208D01*
X0Y1207D02*
X29Y1207D01*
X0Y1206D02*
X31Y1206D01*
X0Y1205D02*
X32Y1205D01*
X0Y1204D02*
X33Y1204D01*
X0Y1203D02*
X34Y1203D01*
X0Y1202D02*
X35Y1202D01*
X0Y1201D02*
X36Y1201D01*
X0Y1200D02*
X37Y1200D01*
X0Y1199D02*
X38Y1199D01*
X0Y1198D02*
X39Y1198D01*
X0Y1197D02*
X39Y1197D01*
X0Y1196D02*
X4Y1196D01*
X17Y1196D02*
X40Y1196D01*
X0Y1195D02*
X1Y1195D01*
X20Y1195D02*
X41Y1195D01*
X22Y1194D02*
X41Y1194D01*
X23Y1193D02*
X42Y1193D01*
X24Y1192D02*
X42Y1192D01*
X25Y1191D02*
X43Y1191D01*
X26Y1190D02*
X43Y1190D01*
X27Y1189D02*
X43Y1189D01*
X27Y1188D02*
X44Y1188D01*
X28Y1187D02*
X44Y1187D01*
X28Y1186D02*
X44Y1186D01*
X29Y1185D02*
X45Y1185D01*
X29Y1184D02*
X45Y1184D01*
X29Y1183D02*
X45Y1183D01*
X29Y1182D02*
X45Y1182D01*
X29Y1181D02*
X45Y1181D01*
X30Y1180D02*
X45Y1180D01*
X30Y1179D02*
X45Y1179D01*
X30Y1178D02*
X45Y1178D01*
X30Y1177D02*
X45Y1177D01*
X30Y1176D02*
X45Y1176D01*
X29Y1175D02*
X45Y1175D01*
X29Y1174D02*
X45Y1174D01*
X29Y1173D02*
X45Y1173D01*
X29Y1172D02*
X45Y1172D01*
X29Y1171D02*
X45Y1171D01*
X28Y1170D02*
X44Y1170D01*
X28Y1169D02*
X44Y1169D01*
X27Y1168D02*
X44Y1168D01*
X27Y1167D02*
X43Y1167D01*
X26Y1166D02*
X43Y1166D01*
X25Y1165D02*
X42Y1165D01*
X24Y1164D02*
X42Y1164D01*
X23Y1163D02*
X41Y1163D01*
X0Y1162D02*
X0Y1162D01*
X21Y1162D02*
X41Y1162D01*
X0Y1161D02*
X2Y1161D01*
X19Y1161D02*
X40Y1161D01*
X0Y1160D02*
X6Y1160D01*
X16Y1160D02*
X40Y1160D01*
X0Y1159D02*
X39Y1159D01*
X0Y1158D02*
X38Y1158D01*
X0Y1157D02*
X38Y1157D01*
X0Y1156D02*
X37Y1156D01*
X0Y1155D02*
X36Y1155D01*
X0Y1154D02*
X35Y1154D01*
X0Y1153D02*
X34Y1153D01*
X0Y1152D02*
X33Y1152D01*
X0Y1151D02*
X32Y1151D01*
X0Y1150D02*
X30Y1150D01*
X0Y1149D02*
X29Y1149D01*
X0Y1148D02*
X27Y1148D01*
X0Y1147D02*
X26Y1147D01*
X0Y1146D02*
X24Y1146D01*
X0Y1145D02*
X21Y1145D01*
X3Y1144D02*
X18Y1144D01*
X9Y1143D02*
X12Y1143D01*
X6Y1113D02*
X15Y1113D01*
X2Y1112D02*
X19Y1112D01*
X0Y1111D02*
X22Y1111D01*
X0Y1110D02*
X24Y1110D01*
X0Y1109D02*
X26Y1109D01*
X0Y1108D02*
X28Y1108D01*
X0Y1107D02*
X30Y1107D01*
X0Y1106D02*
X31Y1106D01*
X0Y1105D02*
X32Y1105D01*
X0Y1104D02*
X33Y1104D01*
X0Y1103D02*
X34Y1103D01*
X0Y1102D02*
X35Y1102D01*
X0Y1101D02*
X36Y1101D01*
X0Y1100D02*
X37Y1100D01*
X0Y1099D02*
X38Y1099D01*
X0Y1098D02*
X39Y1098D01*
X0Y1097D02*
X39Y1097D01*
X0Y1096D02*
X4Y1096D01*
X17Y1096D02*
X40Y1096D01*
X0Y1095D02*
X1Y1095D01*
X20Y1095D02*
X41Y1095D01*
X22Y1094D02*
X41Y1094D01*
X23Y1093D02*
X42Y1093D01*
X24Y1092D02*
X42Y1092D01*
X25Y1091D02*
X43Y1091D01*
X26Y1090D02*
X43Y1090D01*
X27Y1089D02*
X43Y1089D01*
X27Y1088D02*
X44Y1088D01*
X28Y1087D02*
X44Y1087D01*
X28Y1086D02*
X44Y1086D01*
X29Y1085D02*
X45Y1085D01*
X29Y1084D02*
X45Y1084D01*
X29Y1083D02*
X45Y1083D01*
X29Y1082D02*
X45Y1082D01*
X29Y1081D02*
X45Y1081D01*
X30Y1080D02*
X45Y1080D01*
X30Y1079D02*
X45Y1079D01*
X30Y1078D02*
X45Y1078D01*
X30Y1077D02*
X45Y1077D01*
X30Y1076D02*
X45Y1076D01*
X29Y1075D02*
X45Y1075D01*
X29Y1074D02*
X45Y1074D01*
X29Y1073D02*
X45Y1073D01*
X29Y1072D02*
X45Y1072D01*
X29Y1071D02*
X45Y1071D01*
X28Y1070D02*
X44Y1070D01*
X28Y1069D02*
X44Y1069D01*
X27Y1068D02*
X44Y1068D01*
X27Y1067D02*
X43Y1067D01*
X26Y1066D02*
X43Y1066D01*
X25Y1065D02*
X42Y1065D01*
X24Y1064D02*
X42Y1064D01*
X23Y1063D02*
X41Y1063D01*
X0Y1062D02*
X0Y1062D01*
X21Y1062D02*
X41Y1062D01*
X0Y1061D02*
X2Y1061D01*
X19Y1061D02*
X40Y1061D01*
X0Y1060D02*
X6Y1060D01*
X16Y1060D02*
X40Y1060D01*
X0Y1059D02*
X39Y1059D01*
X0Y1058D02*
X38Y1058D01*
X0Y1057D02*
X38Y1057D01*
X0Y1056D02*
X37Y1056D01*
X0Y1055D02*
X36Y1055D01*
X0Y1054D02*
X35Y1054D01*
X0Y1053D02*
X34Y1053D01*
X0Y1052D02*
X33Y1052D01*
X0Y1051D02*
X32Y1051D01*
X0Y1050D02*
X30Y1050D01*
X0Y1049D02*
X29Y1049D01*
X0Y1048D02*
X27Y1048D01*
X0Y1047D02*
X26Y1047D01*
X0Y1046D02*
X24Y1046D01*
X0Y1045D02*
X21Y1045D01*
X3Y1044D02*
X18Y1044D01*
X9Y1043D02*
X12Y1043D01*
X6Y1013D02*
X15Y1013D01*
X2Y1012D02*
X19Y1012D01*
X0Y1011D02*
X22Y1011D01*
X0Y1010D02*
X24Y1010D01*
X0Y1009D02*
X26Y1009D01*
X0Y1008D02*
X28Y1008D01*
X0Y1007D02*
X30Y1007D01*
X0Y1006D02*
X31Y1006D01*
X0Y1005D02*
X32Y1005D01*
X0Y1004D02*
X33Y1004D01*
X0Y1003D02*
X34Y1003D01*
X0Y1002D02*
X35Y1002D01*
X0Y1001D02*
X36Y1001D01*
X0Y1000D02*
X37Y1000D01*
X0Y999D02*
X38Y999D01*
X0Y998D02*
X39Y998D01*
X0Y997D02*
X39Y997D01*
X0Y996D02*
X4Y996D01*
X17Y996D02*
X40Y996D01*
X0Y995D02*
X1Y995D01*
X20Y995D02*
X41Y995D01*
X22Y994D02*
X41Y994D01*
X23Y993D02*
X42Y993D01*
X24Y992D02*
X42Y992D01*
X25Y991D02*
X43Y991D01*
X26Y990D02*
X43Y990D01*
X27Y989D02*
X43Y989D01*
X27Y988D02*
X44Y988D01*
X28Y987D02*
X44Y987D01*
X28Y986D02*
X44Y986D01*
X29Y985D02*
X45Y985D01*
X29Y984D02*
X45Y984D01*
X29Y983D02*
X45Y983D01*
X29Y982D02*
X45Y982D01*
X29Y981D02*
X45Y981D01*
X30Y980D02*
X45Y980D01*
X30Y979D02*
X45Y979D01*
X30Y978D02*
X45Y978D01*
X30Y977D02*
X45Y977D01*
X30Y976D02*
X45Y976D01*
X29Y975D02*
X45Y975D01*
X29Y974D02*
X45Y974D01*
X29Y973D02*
X45Y973D01*
X29Y972D02*
X45Y972D01*
X29Y971D02*
X45Y971D01*
X28Y970D02*
X44Y970D01*
X28Y969D02*
X44Y969D01*
X27Y968D02*
X44Y968D01*
X27Y967D02*
X43Y967D01*
X26Y966D02*
X43Y966D01*
X25Y965D02*
X42Y965D01*
X24Y964D02*
X42Y964D01*
X23Y963D02*
X41Y963D01*
X0Y962D02*
X0Y962D01*
X21Y962D02*
X41Y962D01*
X0Y961D02*
X2Y961D01*
X19Y961D02*
X40Y961D01*
X0Y960D02*
X6Y960D01*
X16Y960D02*
X40Y960D01*
X0Y959D02*
X39Y959D01*
X0Y958D02*
X38Y958D01*
X0Y957D02*
X38Y957D01*
X0Y956D02*
X37Y956D01*
X0Y955D02*
X36Y955D01*
X0Y954D02*
X35Y954D01*
X0Y953D02*
X34Y953D01*
X0Y952D02*
X33Y952D01*
X0Y951D02*
X32Y951D01*
X0Y950D02*
X30Y950D01*
X0Y949D02*
X29Y949D01*
X0Y948D02*
X27Y948D01*
X0Y947D02*
X26Y947D01*
X0Y946D02*
X24Y946D01*
X0Y945D02*
X21Y945D01*
X3Y944D02*
X18Y944D01*
X9Y943D02*
X12Y943D01*
X6Y913D02*
X15Y913D01*
X2Y912D02*
X19Y912D01*
X0Y911D02*
X22Y911D01*
X0Y910D02*
X24Y910D01*
X0Y909D02*
X26Y909D01*
X0Y908D02*
X28Y908D01*
X0Y907D02*
X29Y907D01*
X0Y906D02*
X31Y906D01*
X0Y905D02*
X32Y905D01*
X0Y904D02*
X33Y904D01*
X0Y903D02*
X34Y903D01*
X0Y902D02*
X35Y902D01*
X0Y901D02*
X36Y901D01*
X0Y900D02*
X37Y900D01*
X0Y899D02*
X38Y899D01*
X0Y898D02*
X39Y898D01*
X0Y897D02*
X39Y897D01*
X0Y896D02*
X4Y896D01*
X17Y896D02*
X40Y896D01*
X0Y895D02*
X1Y895D01*
X20Y895D02*
X41Y895D01*
X22Y894D02*
X41Y894D01*
X23Y893D02*
X42Y893D01*
X24Y892D02*
X42Y892D01*
X25Y891D02*
X43Y891D01*
X26Y890D02*
X43Y890D01*
X27Y889D02*
X43Y889D01*
X27Y888D02*
X44Y888D01*
X28Y887D02*
X44Y887D01*
X28Y886D02*
X44Y886D01*
X29Y885D02*
X45Y885D01*
X29Y884D02*
X45Y884D01*
X29Y883D02*
X45Y883D01*
X29Y882D02*
X45Y882D01*
X29Y881D02*
X45Y881D01*
X30Y880D02*
X45Y880D01*
X30Y879D02*
X45Y879D01*
X30Y878D02*
X45Y878D01*
X30Y877D02*
X45Y877D01*
X30Y876D02*
X45Y876D01*
X29Y875D02*
X45Y875D01*
X29Y874D02*
X45Y874D01*
X29Y873D02*
X45Y873D01*
X29Y872D02*
X45Y872D01*
X29Y871D02*
X44Y871D01*
X28Y870D02*
X44Y870D01*
X28Y869D02*
X44Y869D01*
X27Y868D02*
X44Y868D01*
X27Y867D02*
X43Y867D01*
X26Y866D02*
X43Y866D01*
X25Y865D02*
X42Y865D01*
X24Y864D02*
X42Y864D01*
X23Y863D02*
X41Y863D01*
X0Y862D02*
X0Y862D01*
X21Y862D02*
X41Y862D01*
X0Y861D02*
X2Y861D01*
X19Y861D02*
X40Y861D01*
X0Y860D02*
X6Y860D01*
X15Y860D02*
X40Y860D01*
X0Y859D02*
X39Y859D01*
X0Y858D02*
X38Y858D01*
X0Y857D02*
X38Y857D01*
X0Y856D02*
X37Y856D01*
X0Y855D02*
X36Y855D01*
X0Y854D02*
X35Y854D01*
X0Y853D02*
X34Y853D01*
X0Y852D02*
X33Y852D01*
X0Y851D02*
X32Y851D01*
X0Y850D02*
X30Y850D01*
X0Y849D02*
X29Y849D01*
X0Y848D02*
X27Y848D01*
X0Y847D02*
X26Y847D01*
X0Y846D02*
X24Y846D01*
X0Y845D02*
X21Y845D01*
X3Y844D02*
X18Y844D01*
X10Y843D02*
X12Y843D01*
X6Y813D02*
X15Y813D01*
X2Y812D02*
X19Y812D01*
X0Y811D02*
X22Y811D01*
X0Y810D02*
X24Y810D01*
X0Y809D02*
X26Y809D01*
X0Y808D02*
X28Y808D01*
X0Y807D02*
X30Y807D01*
X0Y806D02*
X31Y806D01*
X0Y805D02*
X32Y805D01*
X0Y804D02*
X33Y804D01*
X0Y803D02*
X34Y803D01*
X0Y802D02*
X35Y802D01*
X0Y801D02*
X36Y801D01*
X0Y800D02*
X37Y800D01*
X0Y799D02*
X38Y799D01*
X0Y798D02*
X39Y798D01*
X0Y797D02*
X39Y797D01*
X0Y796D02*
X4Y796D01*
X17Y796D02*
X40Y796D01*
X0Y795D02*
X1Y795D01*
X20Y795D02*
X41Y795D01*
X22Y794D02*
X41Y794D01*
X23Y793D02*
X42Y793D01*
X24Y792D02*
X42Y792D01*
X25Y791D02*
X43Y791D01*
X26Y790D02*
X43Y790D01*
X27Y789D02*
X43Y789D01*
X27Y788D02*
X44Y788D01*
X28Y787D02*
X44Y787D01*
X28Y786D02*
X44Y786D01*
X29Y785D02*
X45Y785D01*
X29Y784D02*
X45Y784D01*
X29Y783D02*
X45Y783D01*
X29Y782D02*
X45Y782D01*
X29Y781D02*
X45Y781D01*
X30Y780D02*
X45Y780D01*
X30Y779D02*
X45Y779D01*
X30Y778D02*
X45Y778D01*
X30Y777D02*
X45Y777D01*
X30Y776D02*
X45Y776D01*
X29Y775D02*
X45Y775D01*
X29Y774D02*
X45Y774D01*
X29Y773D02*
X45Y773D01*
X29Y772D02*
X45Y772D01*
X29Y771D02*
X44Y771D01*
X28Y770D02*
X44Y770D01*
X28Y769D02*
X44Y769D01*
X27Y768D02*
X44Y768D01*
X27Y767D02*
X43Y767D01*
X26Y766D02*
X43Y766D01*
X25Y765D02*
X42Y765D01*
X24Y764D02*
X42Y764D01*
X23Y763D02*
X41Y763D01*
X0Y762D02*
X0Y762D01*
X21Y762D02*
X41Y762D01*
X0Y761D02*
X2Y761D01*
X19Y761D02*
X40Y761D01*
X0Y760D02*
X6Y760D01*
X15Y760D02*
X40Y760D01*
X0Y759D02*
X39Y759D01*
X0Y758D02*
X38Y758D01*
X0Y757D02*
X38Y757D01*
X0Y756D02*
X37Y756D01*
X0Y755D02*
X36Y755D01*
X0Y754D02*
X35Y754D01*
X0Y753D02*
X34Y753D01*
X0Y752D02*
X33Y752D01*
X0Y751D02*
X32Y751D01*
X0Y750D02*
X30Y750D01*
X0Y749D02*
X29Y749D01*
X0Y748D02*
X27Y748D01*
X0Y747D02*
X26Y747D01*
X0Y746D02*
X24Y746D01*
X0Y745D02*
X21Y745D01*
X3Y744D02*
X18Y744D01*
X10Y743D02*
X11Y743D01*
X6Y713D02*
X15Y713D01*
X2Y712D02*
X20Y712D01*
X0Y711D02*
X22Y711D01*
X0Y710D02*
X24Y710D01*
X0Y709D02*
X26Y709D01*
X0Y708D02*
X28Y708D01*
X0Y707D02*
X30Y707D01*
X0Y706D02*
X31Y706D01*
X0Y705D02*
X32Y705D01*
X0Y704D02*
X33Y704D01*
X0Y703D02*
X34Y703D01*
X0Y702D02*
X35Y702D01*
X0Y701D02*
X36Y701D01*
X0Y700D02*
X37Y700D01*
X0Y699D02*
X38Y699D01*
X0Y698D02*
X39Y698D01*
X0Y697D02*
X39Y697D01*
X0Y696D02*
X4Y696D01*
X17Y696D02*
X40Y696D01*
X0Y695D02*
X1Y695D01*
X20Y695D02*
X41Y695D01*
X22Y694D02*
X41Y694D01*
X23Y693D02*
X42Y693D01*
X24Y692D02*
X42Y692D01*
X25Y691D02*
X43Y691D01*
X26Y690D02*
X43Y690D01*
X27Y689D02*
X43Y689D01*
X27Y688D02*
X44Y688D01*
X28Y687D02*
X44Y687D01*
X28Y686D02*
X44Y686D01*
X29Y685D02*
X45Y685D01*
X29Y684D02*
X45Y684D01*
X29Y683D02*
X45Y683D01*
X29Y682D02*
X45Y682D01*
X29Y681D02*
X45Y681D01*
X30Y680D02*
X45Y680D01*
X30Y679D02*
X45Y679D01*
X30Y678D02*
X45Y678D01*
X30Y677D02*
X45Y677D01*
X30Y676D02*
X45Y676D01*
X29Y675D02*
X45Y675D01*
X29Y674D02*
X45Y674D01*
X29Y673D02*
X45Y673D01*
X29Y672D02*
X45Y672D01*
X29Y671D02*
X45Y671D01*
X28Y670D02*
X44Y670D01*
X28Y669D02*
X44Y669D01*
X27Y668D02*
X44Y668D01*
X27Y667D02*
X43Y667D01*
X26Y666D02*
X43Y666D01*
X25Y665D02*
X42Y665D01*
X24Y664D02*
X42Y664D01*
X23Y663D02*
X41Y663D01*
X0Y662D02*
X0Y662D01*
X21Y662D02*
X41Y662D01*
X0Y661D02*
X2Y661D01*
X19Y661D02*
X40Y661D01*
X0Y660D02*
X6Y660D01*
X15Y660D02*
X40Y660D01*
X0Y659D02*
X39Y659D01*
X0Y658D02*
X38Y658D01*
X0Y657D02*
X38Y657D01*
X0Y656D02*
X37Y656D01*
X0Y655D02*
X36Y655D01*
X0Y654D02*
X35Y654D01*
X0Y653D02*
X34Y653D01*
X0Y652D02*
X33Y652D01*
X0Y651D02*
X32Y651D01*
X0Y650D02*
X30Y650D01*
X0Y649D02*
X29Y649D01*
X0Y648D02*
X27Y648D01*
X0Y647D02*
X26Y647D01*
X0Y646D02*
X24Y646D01*
X0Y645D02*
X21Y645D01*
X3Y644D02*
X18Y644D01*
X10Y643D02*
X11Y643D01*
X6Y613D02*
X15Y613D01*
X2Y612D02*
X20Y612D01*
X0Y611D02*
X22Y611D01*
X0Y610D02*
X25Y610D01*
X0Y609D02*
X26Y609D01*
X0Y608D02*
X28Y608D01*
X0Y607D02*
X30Y607D01*
X0Y606D02*
X31Y606D01*
X0Y605D02*
X32Y605D01*
X0Y604D02*
X33Y604D01*
X0Y603D02*
X34Y603D01*
X0Y602D02*
X35Y602D01*
X0Y601D02*
X36Y601D01*
X0Y600D02*
X37Y600D01*
X0Y599D02*
X38Y599D01*
X0Y598D02*
X39Y598D01*
X0Y597D02*
X39Y597D01*
X0Y596D02*
X4Y596D01*
X17Y596D02*
X40Y596D01*
X0Y595D02*
X1Y595D01*
X20Y595D02*
X41Y595D01*
X22Y594D02*
X41Y594D01*
X23Y593D02*
X42Y593D01*
X24Y592D02*
X42Y592D01*
X25Y591D02*
X43Y591D01*
X26Y590D02*
X43Y590D01*
X27Y589D02*
X43Y589D01*
X27Y588D02*
X44Y588D01*
X28Y587D02*
X44Y587D01*
X28Y586D02*
X44Y586D01*
X29Y585D02*
X45Y585D01*
X29Y584D02*
X45Y584D01*
X29Y583D02*
X45Y583D01*
X29Y582D02*
X45Y582D01*
X29Y581D02*
X45Y581D01*
X30Y580D02*
X45Y580D01*
X30Y579D02*
X45Y579D01*
X30Y578D02*
X45Y578D01*
X30Y577D02*
X45Y577D01*
X30Y576D02*
X45Y576D01*
X29Y575D02*
X45Y575D01*
X29Y574D02*
X45Y574D01*
X29Y573D02*
X45Y573D01*
X29Y572D02*
X45Y572D01*
X29Y571D02*
X45Y571D01*
X28Y570D02*
X44Y570D01*
X28Y569D02*
X44Y569D01*
X27Y568D02*
X44Y568D01*
X27Y567D02*
X43Y567D01*
X26Y566D02*
X43Y566D01*
X25Y565D02*
X42Y565D01*
X24Y564D02*
X42Y564D01*
X23Y563D02*
X41Y563D01*
X0Y562D02*
X0Y562D01*
X21Y562D02*
X41Y562D01*
X0Y561D02*
X2Y561D01*
X19Y561D02*
X40Y561D01*
X0Y560D02*
X6Y560D01*
X15Y560D02*
X40Y560D01*
X0Y559D02*
X39Y559D01*
X0Y558D02*
X38Y558D01*
X0Y557D02*
X38Y557D01*
X0Y556D02*
X37Y556D01*
X0Y555D02*
X36Y555D01*
X0Y554D02*
X35Y554D01*
X0Y553D02*
X34Y553D01*
X0Y552D02*
X33Y552D01*
X0Y551D02*
X32Y551D01*
X0Y550D02*
X30Y550D01*
X0Y549D02*
X29Y549D01*
X0Y548D02*
X27Y548D01*
X0Y547D02*
X26Y547D01*
X0Y546D02*
X24Y546D01*
X0Y545D02*
X21Y545D01*
X3Y544D02*
X18Y544D01*
X10Y543D02*
X11Y543D01*
X6Y513D02*
X16Y513D01*
X2Y512D02*
X20Y512D01*
X0Y511D02*
X22Y511D01*
X0Y510D02*
X25Y510D01*
X0Y509D02*
X26Y509D01*
X0Y508D02*
X28Y508D01*
X0Y507D02*
X30Y507D01*
X0Y506D02*
X31Y506D01*
X0Y505D02*
X32Y505D01*
X0Y504D02*
X33Y504D01*
X0Y503D02*
X34Y503D01*
X0Y502D02*
X35Y502D01*
X0Y501D02*
X36Y501D01*
X0Y500D02*
X37Y500D01*
X0Y499D02*
X38Y499D01*
X0Y498D02*
X39Y498D01*
X0Y497D02*
X39Y497D01*
X0Y496D02*
X4Y496D01*
X17Y496D02*
X40Y496D01*
X0Y495D02*
X1Y495D01*
X20Y495D02*
X41Y495D01*
X22Y494D02*
X41Y494D01*
X23Y493D02*
X42Y493D01*
X24Y492D02*
X42Y492D01*
X25Y491D02*
X43Y491D01*
X26Y490D02*
X43Y490D01*
X27Y489D02*
X43Y489D01*
X27Y488D02*
X44Y488D01*
X28Y487D02*
X44Y487D01*
X28Y486D02*
X44Y486D01*
X29Y485D02*
X45Y485D01*
X29Y484D02*
X45Y484D01*
X29Y483D02*
X45Y483D01*
X29Y482D02*
X45Y482D01*
X29Y481D02*
X45Y481D01*
X30Y480D02*
X45Y480D01*
X30Y479D02*
X45Y479D01*
X30Y478D02*
X45Y478D01*
X30Y477D02*
X45Y477D01*
X30Y476D02*
X45Y476D01*
X29Y475D02*
X45Y475D01*
X29Y474D02*
X45Y474D01*
X29Y473D02*
X45Y473D01*
X29Y472D02*
X45Y472D01*
X29Y471D02*
X45Y471D01*
X28Y470D02*
X44Y470D01*
X28Y469D02*
X44Y469D01*
X27Y468D02*
X44Y468D01*
X27Y467D02*
X43Y467D01*
X26Y466D02*
X43Y466D01*
X25Y465D02*
X42Y465D01*
X24Y464D02*
X42Y464D01*
X23Y463D02*
X41Y463D01*
X0Y462D02*
X0Y462D01*
X21Y462D02*
X41Y462D01*
X0Y461D02*
X2Y461D01*
X19Y461D02*
X40Y461D01*
X0Y460D02*
X6Y460D01*
X15Y460D02*
X40Y460D01*
X0Y459D02*
X39Y459D01*
X0Y458D02*
X38Y458D01*
X0Y457D02*
X38Y457D01*
X0Y456D02*
X37Y456D01*
X0Y455D02*
X36Y455D01*
X0Y454D02*
X35Y454D01*
X0Y453D02*
X34Y453D01*
X0Y452D02*
X33Y452D01*
X0Y451D02*
X32Y451D01*
X0Y450D02*
X30Y450D01*
X0Y449D02*
X29Y449D01*
X0Y448D02*
X27Y448D01*
X0Y447D02*
X26Y447D01*
X0Y446D02*
X24Y446D01*
X0Y445D02*
X21Y445D01*
X3Y444D02*
X18Y444D01*
X10Y443D02*
X11Y443D01*
D02*
G04 End of Copper0*
M02*